%TF.GenerationSoftware,KiCad,Pcbnew,9.0.6*%
%TF.CreationDate,2026-03-05T12:47:34+03:00*%
%TF.ProjectId,QMX+ Battery + Audio Board,514d582b-2042-4617-9474-657279202b20,rev?*%
%TF.SameCoordinates,Original*%
%TF.FileFunction,Copper,L1,Top*%
%TF.FilePolarity,Positive*%
%FSLAX46Y46*%
G04 Gerber Fmt 4.6, Leading zero omitted, Abs format (unit mm)*
G04 Created by KiCad (PCBNEW 9.0.6) date 2026-03-05 12:47:34*
%MOMM*%
%LPD*%
G01*
G04 APERTURE LIST*
G04 Aperture macros list*
%AMRoundRect*
0 Rectangle with rounded corners*
0 $1 Rounding radius*
0 $2 $3 $4 $5 $6 $7 $8 $9 X,Y pos of 4 corners*
0 Add a 4 corners polygon primitive as box body*
4,1,4,$2,$3,$4,$5,$6,$7,$8,$9,$2,$3,0*
0 Add four circle primitives for the rounded corners*
1,1,$1+$1,$2,$3*
1,1,$1+$1,$4,$5*
1,1,$1+$1,$6,$7*
1,1,$1+$1,$8,$9*
0 Add four rect primitives between the rounded corners*
20,1,$1+$1,$2,$3,$4,$5,0*
20,1,$1+$1,$4,$5,$6,$7,0*
20,1,$1+$1,$6,$7,$8,$9,0*
20,1,$1+$1,$8,$9,$2,$3,0*%
%AMOutline5P*
0 Free polygon, 5 corners , with rotation*
0 The origin of the aperture is its center*
0 number of corners: always 5*
0 $1 to $10 corner X, Y*
0 $11 Rotation angle, in degrees counterclockwise*
0 create outline with 5 corners*
4,1,5,$1,$2,$3,$4,$5,$6,$7,$8,$9,$10,$1,$2,$11*%
%AMOutline6P*
0 Free polygon, 6 corners , with rotation*
0 The origin of the aperture is its center*
0 number of corners: always 6*
0 $1 to $12 corner X, Y*
0 $13 Rotation angle, in degrees counterclockwise*
0 create outline with 6 corners*
4,1,6,$1,$2,$3,$4,$5,$6,$7,$8,$9,$10,$11,$12,$1,$2,$13*%
%AMOutline7P*
0 Free polygon, 7 corners , with rotation*
0 The origin of the aperture is its center*
0 number of corners: always 7*
0 $1 to $14 corner X, Y*
0 $15 Rotation angle, in degrees counterclockwise*
0 create outline with 7 corners*
4,1,7,$1,$2,$3,$4,$5,$6,$7,$8,$9,$10,$11,$12,$13,$14,$1,$2,$15*%
%AMOutline8P*
0 Free polygon, 8 corners , with rotation*
0 The origin of the aperture is its center*
0 number of corners: always 8*
0 $1 to $16 corner X, Y*
0 $17 Rotation angle, in degrees counterclockwise*
0 create outline with 8 corners*
4,1,8,$1,$2,$3,$4,$5,$6,$7,$8,$9,$10,$11,$12,$13,$14,$15,$16,$1,$2,$17*%
G04 Aperture macros list end*
%TA.AperFunction,SMDPad,CuDef*%
%ADD10RoundRect,0.250000X-0.450000X0.350000X-0.450000X-0.350000X0.450000X-0.350000X0.450000X0.350000X0*%
%TD*%
%TA.AperFunction,ComponentPad*%
%ADD11R,2.000000X3.000000*%
%TD*%
%TA.AperFunction,ComponentPad*%
%ADD12R,3.000000X4.000000*%
%TD*%
%TA.AperFunction,ComponentPad*%
%ADD13R,3.500000X3.500000*%
%TD*%
%TA.AperFunction,ComponentPad*%
%ADD14C,3.500000*%
%TD*%
%TA.AperFunction,ComponentPad*%
%ADD15C,2.250000*%
%TD*%
%TA.AperFunction,ComponentPad*%
%ADD16C,1.600000*%
%TD*%
%TA.AperFunction,ComponentPad*%
%ADD17O,2.000000X2.000000*%
%TD*%
%TA.AperFunction,SMDPad,CuDef*%
%ADD18RoundRect,0.250000X0.475000X-0.337500X0.475000X0.337500X-0.475000X0.337500X-0.475000X-0.337500X0*%
%TD*%
%TA.AperFunction,ComponentPad*%
%ADD19O,2.540000X2.000000*%
%TD*%
%TA.AperFunction,ComponentPad*%
%ADD20R,1.700000X1.700000*%
%TD*%
%TA.AperFunction,ComponentPad*%
%ADD21O,1.700000X1.700000*%
%TD*%
%TA.AperFunction,ComponentPad*%
%ADD22O,1.600000X1.600000*%
%TD*%
%TA.AperFunction,ComponentPad*%
%ADD23R,2.520000X1.551400*%
%TD*%
%TA.AperFunction,ComponentPad*%
%ADD24R,2.500000X3.000000*%
%TD*%
%TA.AperFunction,ComponentPad*%
%ADD25C,3.810000*%
%TD*%
%TA.AperFunction,ComponentPad*%
%ADD26Outline8P,-0.889000X0.368236X-0.368236X0.889000X0.368236X0.889000X0.889000X0.368236X0.889000X-0.368236X0.368236X-0.889000X-0.368236X-0.889000X-0.889000X-0.368236X0.000000*%
%TD*%
%TA.AperFunction,ComponentPad*%
%ADD27Outline8P,-0.889000X0.368236X-0.368236X0.889000X0.368236X0.889000X0.889000X0.368236X0.889000X-0.368236X0.368236X-0.889000X-0.368236X-0.889000X-0.889000X-0.368236X270.000000*%
%TD*%
%TA.AperFunction,ViaPad*%
%ADD28C,1.500000*%
%TD*%
%TA.AperFunction,Conductor*%
%ADD29C,1.500000*%
%TD*%
G04 APERTURE END LIST*
D10*
%TO.P,R3,1*%
%TO.N,Net-(J1-Pin_3)*%
X100330000Y-78316000D03*
%TO.P,R3,2*%
%TO.N,Net-(U2-IN)*%
X100330000Y-80316000D03*
%TD*%
D11*
%TO.P,U1,1,VIN*%
%TO.N,unconnected-(U1-VIN-Pad1)*%
X212668500Y-77317500D03*
%TO.P,U1,2,GND*%
%TO.N,unconnected-(U1-GND-Pad2)*%
X212668500Y-62839500D03*
D12*
%TO.P,U1,3,BAT*%
%TO.N,Net-(J4-Pin_1)*%
X178938500Y-67665500D03*
%TO.P,U1,4,GND*%
%TO.N,GND1*%
X178938500Y-72491500D03*
%TD*%
D13*
%TO.P,BT3,1,+*%
%TO.N,Net-(BMS1-12.6V)*%
X116840000Y-66000000D03*
D14*
%TO.P,BT3,2,-*%
%TO.N,Net-(BMS1-8.4V)*%
X116840000Y-138000000D03*
%TD*%
D15*
%TO.P,F1,1*%
%TO.N,Net-(J4-Pin_1)*%
X210000000Y-86360000D03*
X210000000Y-93980000D03*
%TO.P,F1,2*%
%TO.N,Net-(BMS1-+)*%
X210000000Y-109220000D03*
%TD*%
D16*
%TO.P,C1,1*%
%TO.N,GND1*%
X188976000Y-59162000D03*
%TO.P,C1,2*%
%TO.N,Net-(J3-Pin_1)*%
X188976000Y-56662000D03*
%TD*%
D17*
%TO.P,U2,1,VDD*%
%TO.N,Net-(J2-Pin_2)*%
X102284000Y-90028200D03*
%TO.P,U2,2,IN*%
%TO.N,Net-(U2-IN)*%
X99744000Y-90006100D03*
%TO.P,U2,3,GND*%
%TO.N,GND*%
X94655000Y-90028200D03*
X97204000Y-90006100D03*
%TD*%
D18*
%TO.P,C2,1*%
%TO.N,GND1*%
X192532000Y-58971000D03*
%TO.P,C2,2*%
%TO.N,Net-(J3-Pin_1)*%
X192532000Y-56896000D03*
%TD*%
D19*
%TO.P,J1,1,Pin_1*%
%TO.N,unconnected-(J1-Pin_1-Pad1)*%
X96940000Y-68640000D03*
%TO.P,J1,2,Pin_2*%
%TO.N,unconnected-(J1-Pin_2-Pad2)*%
X96940000Y-66100000D03*
%TO.P,J1,3,Pin_3*%
%TO.N,Net-(J1-Pin_3)*%
X96940000Y-63560000D03*
%TO.P,J1,4,Pin_4*%
%TO.N,Net-(J1-Pin_4)*%
X96940000Y-61020000D03*
%TO.P,J1,5,Pin_5*%
%TO.N,unconnected-(J1-Pin_5-Pad5)*%
X96940000Y-58480000D03*
%TD*%
D20*
%TO.P,J4,1,Pin_1*%
%TO.N,Net-(J4-Pin_1)*%
X201000000Y-86360000D03*
D21*
%TO.P,J4,2,Pin_2*%
%TO.N,Net-(J3-Pin_1)*%
X198460000Y-86360000D03*
%TD*%
D16*
%TO.P,R2,1*%
%TO.N,Net-(J1-Pin_4)*%
X96520000Y-74236000D03*
D22*
%TO.P,R2,2*%
%TO.N,Net-(U2-IN)*%
X96520000Y-84396000D03*
%TD*%
D16*
%TO.P,R1,1*%
%TO.N,Net-(J1-Pin_3)*%
X100330000Y-74236000D03*
D22*
%TO.P,R1,2*%
%TO.N,Net-(U2-IN)*%
X100330000Y-84396000D03*
%TD*%
D23*
%TO.P,BMS1,1,0V*%
%TO.N,Net-(BMS1-0V)*%
X191010000Y-133740300D03*
D24*
X191000000Y-132230000D03*
%TO.P,BMS1,2,4.2V*%
%TO.N,Net-(BMS1-4.2V)*%
X191000000Y-113180000D03*
%TO.P,BMS1,3,8.4V*%
%TO.N,Net-(BMS1-8.4V)*%
X191000000Y-94130000D03*
%TO.P,BMS1,4,12.6V*%
%TO.N,Net-(BMS1-12.6V)*%
X173220000Y-94130000D03*
%TO.P,BMS1,5,+*%
%TO.N,Net-(BMS1-+)*%
X179570000Y-89050000D03*
%TO.P,BMS1,6,-*%
%TO.N,GND1*%
X184650000Y-89050000D03*
%TD*%
D10*
%TO.P,R4,1*%
%TO.N,Net-(J1-Pin_4)*%
X96520000Y-78316000D03*
%TO.P,R4,2*%
%TO.N,Net-(U2-IN)*%
X96520000Y-80316000D03*
%TD*%
D17*
%TO.P,U3,1,EN*%
%TO.N,unconnected-(U3-EN-Pad1)*%
X156250000Y-145500000D03*
%TO.P,U3,2,IN+*%
%TO.N,Net-(J4-Pin_1)*%
X158790000Y-145500000D03*
%TO.P,U3,3,GND*%
%TO.N,GND1*%
X161330000Y-145500000D03*
%TO.P,U3,4,VO+*%
%TO.N,Net-(J3-Pin_1)*%
X163870000Y-145500000D03*
%TD*%
D25*
%TO.P,H1,B3\u002C3*%
%TO.N,GND*%
X98840000Y-138172500D03*
%TD*%
%TO.P,H2,B3\u002C3*%
%TO.N,GND*%
X201948750Y-99437500D03*
%TD*%
D13*
%TO.P,BT2,1,+*%
%TO.N,Net-(BMS1-8.4V)*%
X138430000Y-138000000D03*
D14*
%TO.P,BT2,2,-*%
%TO.N,Net-(BMS1-4.2V)*%
X138430000Y-66000000D03*
%TD*%
D13*
%TO.P,BT1,1,+*%
%TO.N,Net-(BMS1-4.2V)*%
X160000000Y-66000000D03*
D14*
%TO.P,BT1,2,-*%
%TO.N,Net-(BMS1-0V)*%
X160000000Y-138000000D03*
%TD*%
D26*
%TO.P,J2,1,Pin_1*%
%TO.N,unconnected-(J2-Pin_1-Pad1)*%
X121700000Y-148010000D03*
%TO.P,J2,2,Pin_2*%
%TO.N,Net-(J2-Pin_2)*%
X121700000Y-145470000D03*
%TO.P,J2,3,Pin_3*%
%TO.N,GND*%
X124240000Y-148010000D03*
%TO.P,J2,4,Pin_4*%
%TO.N,unconnected-(J2-Pin_4-Pad4)*%
X124240000Y-145470000D03*
%TO.P,J2,5,Pin_5*%
%TO.N,GND*%
X126780000Y-148010000D03*
%TO.P,J2,6,Pin_6*%
%TO.N,unconnected-(J2-Pin_6-Pad6)*%
X126780000Y-145470000D03*
%TD*%
D27*
%TO.P,J3,1,Pin_1*%
%TO.N,Net-(J3-Pin_1)*%
X196312500Y-55940000D03*
%TO.P,J3,2,Pin_2*%
%TO.N,unconnected-(J3-Pin_2-Pad2)*%
X198852500Y-55940000D03*
%TO.P,J3,3,Pin_3*%
%TO.N,GND1*%
X196312500Y-58480000D03*
%TO.P,J3,4,Pin_4*%
%TO.N,unconnected-(J3-Pin_4-Pad4)*%
X198852500Y-58480000D03*
%TD*%
D28*
%TO.N,*%
X179324000Y-62992000D03*
%TO.N,Net-(BMS1-4.2V)*%
X179000000Y-113000000D03*
X181000000Y-113000000D03*
%TO.N,GND*%
X144000000Y-101500000D03*
X97500000Y-71500000D03*
X173000000Y-80000000D03*
X189992000Y-106680000D03*
X104500000Y-138000000D03*
X189992000Y-120904000D03*
X200750000Y-110500000D03*
X109250000Y-68250000D03*
X188976000Y-89408000D03*
X93500000Y-97500000D03*
X175500000Y-132750000D03*
%TD*%
D29*
%TO.N,Net-(BMS1-4.2V)*%
X160000000Y-94000000D02*
X177500000Y-111500000D01*
X179000000Y-113000000D02*
X181000000Y-113000000D01*
X177500000Y-111500000D02*
X179000000Y-113000000D01*
X160000000Y-66000000D02*
X160000000Y-94000000D01*
%TO.N,GND*%
X94677100Y-90006100D02*
X94655000Y-90028200D01*
%TO.N,Net-(J1-Pin_3)*%
X99170000Y-63560000D02*
X96940000Y-63560000D01*
X100330000Y-64720000D02*
X99170000Y-63560000D01*
X100330000Y-74236000D02*
X100330000Y-64720000D01*
X100330000Y-78316000D02*
X100330000Y-74236000D01*
%TO.N,Net-(J1-Pin_4)*%
X96520000Y-78316000D02*
X96520000Y-74236000D01*
X93980000Y-62230000D02*
X93980000Y-71696000D01*
X93980000Y-71696000D02*
X96520000Y-74236000D01*
X95190000Y-61020000D02*
X93980000Y-62230000D01*
X96940000Y-61020000D02*
X95190000Y-61020000D01*
%TO.N,Net-(J2-Pin_2)*%
X102284000Y-90028200D02*
X117968200Y-90028200D01*
X121700000Y-93760000D02*
X121700000Y-145470000D01*
X117968200Y-90028200D02*
X121700000Y-93760000D01*
%TO.N,Net-(J3-Pin_1)*%
X198460000Y-92116000D02*
X198460000Y-87000000D01*
X163870000Y-145500000D02*
X166500000Y-145500000D01*
X192532000Y-56896000D02*
X193488000Y-55940000D01*
X186944000Y-125056000D02*
X186944000Y-103632000D01*
X166500000Y-145500000D02*
X186944000Y-125056000D01*
X189210000Y-56896000D02*
X188976000Y-56662000D01*
X186944000Y-103632000D02*
X198460000Y-92116000D01*
X192532000Y-56896000D02*
X189210000Y-56896000D01*
X193488000Y-55940000D02*
X196312500Y-55940000D01*
%TO.N,GND1*%
X161330000Y-143370000D02*
X184650000Y-120050000D01*
X177058000Y-59162000D02*
X188976000Y-59162000D01*
X178938500Y-80894500D02*
X178938500Y-72491500D01*
X178938500Y-72491500D02*
X176123500Y-72491500D01*
X192532000Y-58971000D02*
X189167000Y-58971000D01*
X174244000Y-61976000D02*
X177058000Y-59162000D01*
X176123500Y-72491500D02*
X174244000Y-70612000D01*
X195821500Y-58971000D02*
X196312500Y-58480000D01*
X174244000Y-70612000D02*
X174244000Y-61976000D01*
X161330000Y-145500000D02*
X161330000Y-143370000D01*
X184650000Y-120050000D02*
X184650000Y-89050000D01*
X184650000Y-86606000D02*
X178938500Y-80894500D01*
X192532000Y-58971000D02*
X195821500Y-58971000D01*
X184650000Y-89050000D02*
X184650000Y-86606000D01*
X189167000Y-58971000D02*
X188976000Y-59162000D01*
%TO.N,Net-(U2-IN)*%
X99744000Y-90006100D02*
X99744000Y-84982000D01*
X99744000Y-84982000D02*
X100330000Y-84396000D01*
X96520000Y-80316000D02*
X96520000Y-84396000D01*
X100330000Y-80316000D02*
X100330000Y-84396000D01*
X100330000Y-84396000D02*
X96520000Y-84396000D01*
%TO.N,Net-(J4-Pin_1)*%
X201000000Y-81112000D02*
X187553500Y-67665500D01*
X158790000Y-145500000D02*
X158790000Y-147290000D01*
X194056000Y-99949000D02*
X201000000Y-93005000D01*
X201000000Y-93005000D02*
X201000000Y-81112000D01*
X159750000Y-148250000D02*
X167218000Y-148250000D01*
X167218000Y-148250000D02*
X194056000Y-121412000D01*
X194056000Y-121412000D02*
X194056000Y-99949000D01*
X201000000Y-86360000D02*
X210000000Y-86360000D01*
X187553500Y-67665500D02*
X178938500Y-67665500D01*
X158790000Y-147290000D02*
X159750000Y-148250000D01*
X210000000Y-86360000D02*
X210000000Y-93980000D01*
%TD*%
%TA.AperFunction,Conductor*%
%TO.N,GND*%
G36*
X126306619Y-147813919D02*
G01*
X126272000Y-147943120D01*
X126272000Y-148076880D01*
X126306619Y-148206081D01*
X126337749Y-148260000D01*
X124682251Y-148260000D01*
X124713381Y-148206081D01*
X124748000Y-148076880D01*
X124748000Y-147943120D01*
X124713381Y-147813919D01*
X124682251Y-147760000D01*
X126337749Y-147760000D01*
X126306619Y-147813919D01*
G37*
%TD.AperFunction*%
%TA.AperFunction,Conductor*%
G36*
X96738075Y-89813107D02*
G01*
X96704000Y-89940274D01*
X96704000Y-90071926D01*
X96738075Y-90199093D01*
X96770988Y-90256100D01*
X96273179Y-90256100D01*
X96237896Y-90275366D01*
X96211538Y-90278200D01*
X95088012Y-90278200D01*
X95120925Y-90221193D01*
X95155000Y-90094026D01*
X95155000Y-89962374D01*
X95120925Y-89835207D01*
X95088012Y-89778200D01*
X95585821Y-89778200D01*
X95621104Y-89758934D01*
X95647462Y-89756100D01*
X96770988Y-89756100D01*
X96738075Y-89813107D01*
G37*
%TD.AperFunction*%
%TA.AperFunction,Conductor*%
G36*
X98667703Y-64830185D02*
G01*
X98688345Y-64846819D01*
X99043181Y-65201655D01*
X99076666Y-65262978D01*
X99079500Y-65289336D01*
X99079500Y-73856498D01*
X99073431Y-73894816D01*
X99061523Y-73931464D01*
X99029500Y-74133648D01*
X99029500Y-74338351D01*
X99061522Y-74540530D01*
X99061522Y-74540531D01*
X99073431Y-74577182D01*
X99079500Y-74615500D01*
X99079500Y-78414422D01*
X99110291Y-78608826D01*
X99110291Y-78608829D01*
X99123431Y-78649268D01*
X99129500Y-78687582D01*
X99129500Y-78716000D01*
X99129501Y-78716018D01*
X99140001Y-78818797D01*
X99140001Y-78818799D01*
X99195185Y-78985331D01*
X99195187Y-78985336D01*
X99287289Y-79134657D01*
X99380951Y-79228319D01*
X99414436Y-79289642D01*
X99409452Y-79359334D01*
X99380951Y-79403681D01*
X99287289Y-79497342D01*
X99195187Y-79646663D01*
X99195186Y-79646666D01*
X99140001Y-79813203D01*
X99140001Y-79813204D01*
X99140000Y-79813204D01*
X99129500Y-79915983D01*
X99129500Y-79944414D01*
X99123431Y-79982732D01*
X99110291Y-80023172D01*
X99079500Y-80217577D01*
X99079500Y-83021500D01*
X99059815Y-83088539D01*
X99007011Y-83134294D01*
X98955500Y-83145500D01*
X97894500Y-83145500D01*
X97827461Y-83125815D01*
X97781706Y-83073011D01*
X97770500Y-83021500D01*
X97770500Y-80217577D01*
X97739709Y-80023173D01*
X97726568Y-79982730D01*
X97720499Y-79944411D01*
X97720499Y-79915998D01*
X97720498Y-79915981D01*
X97709999Y-79813203D01*
X97709998Y-79813200D01*
X97654814Y-79646666D01*
X97562712Y-79497344D01*
X97469049Y-79403681D01*
X97435564Y-79342358D01*
X97440548Y-79272666D01*
X97469049Y-79228319D01*
X97562712Y-79134656D01*
X97654814Y-78985334D01*
X97709999Y-78818797D01*
X97720500Y-78716009D01*
X97720499Y-78687584D01*
X97726567Y-78649267D01*
X97739709Y-78608826D01*
X97756504Y-78502784D01*
X97770500Y-78414422D01*
X97770500Y-74615500D01*
X97776569Y-74577182D01*
X97788477Y-74540534D01*
X97820500Y-74338352D01*
X97820500Y-74133648D01*
X97788477Y-73931466D01*
X97788476Y-73931464D01*
X97733312Y-73761685D01*
X97725220Y-73736781D01*
X97725218Y-73736778D01*
X97725218Y-73736776D01*
X97681198Y-73650384D01*
X97632287Y-73554390D01*
X97624556Y-73543749D01*
X97511971Y-73388786D01*
X97367213Y-73244028D01*
X97201611Y-73123713D01*
X97167272Y-73106216D01*
X97135887Y-73083413D01*
X95266819Y-71214345D01*
X95233334Y-71153022D01*
X95230500Y-71126664D01*
X95230500Y-69593133D01*
X95250185Y-69526094D01*
X95302989Y-69480339D01*
X95372147Y-69470395D01*
X95435703Y-69499420D01*
X95454817Y-69520246D01*
X95525483Y-69617510D01*
X95692490Y-69784517D01*
X95883567Y-69923343D01*
X95982991Y-69974002D01*
X96094003Y-70030566D01*
X96094005Y-70030566D01*
X96094008Y-70030568D01*
X96131236Y-70042664D01*
X96318631Y-70103553D01*
X96551903Y-70140500D01*
X96551908Y-70140500D01*
X97328097Y-70140500D01*
X97561368Y-70103553D01*
X97590689Y-70094026D01*
X97785992Y-70030568D01*
X97996433Y-69923343D01*
X98187510Y-69784517D01*
X98354517Y-69617510D01*
X98493343Y-69426433D01*
X98600568Y-69215992D01*
X98673553Y-68991368D01*
X98685490Y-68916000D01*
X98710500Y-68758097D01*
X98710500Y-68521902D01*
X98673553Y-68288631D01*
X98623841Y-68135635D01*
X98600568Y-68064008D01*
X98600566Y-68064005D01*
X98600566Y-68064003D01*
X98495338Y-67857483D01*
X98493343Y-67853567D01*
X98354517Y-67662490D01*
X98187510Y-67495483D01*
X98152872Y-67470317D01*
X98110207Y-67414989D01*
X98104228Y-67345375D01*
X98136833Y-67283580D01*
X98152873Y-67269682D01*
X98187510Y-67244517D01*
X98354517Y-67077510D01*
X98493343Y-66886433D01*
X98600568Y-66675992D01*
X98673553Y-66451368D01*
X98698953Y-66291000D01*
X98710500Y-66218097D01*
X98710500Y-65981902D01*
X98673553Y-65748631D01*
X98600566Y-65524003D01*
X98493342Y-65313566D01*
X98354517Y-65122490D01*
X98254208Y-65022181D01*
X98220723Y-64960858D01*
X98225707Y-64891166D01*
X98267579Y-64835233D01*
X98333043Y-64810816D01*
X98341889Y-64810500D01*
X98600664Y-64810500D01*
X98667703Y-64830185D01*
G37*
%TD.AperFunction*%
%TA.AperFunction,Conductor*%
G36*
X192556703Y-54890185D02*
G01*
X192602458Y-54942989D01*
X192612402Y-55012147D01*
X192583377Y-55075703D01*
X192577345Y-55082181D01*
X192050345Y-55609181D01*
X191989022Y-55642666D01*
X191962664Y-55645500D01*
X189829741Y-55645500D01*
X189762702Y-55625815D01*
X189756857Y-55621819D01*
X189657610Y-55549713D01*
X189657608Y-55549712D01*
X189475223Y-55456781D01*
X189280534Y-55393522D01*
X189105995Y-55365878D01*
X189078352Y-55361500D01*
X188873648Y-55361500D01*
X188849329Y-55365351D01*
X188671465Y-55393522D01*
X188476776Y-55456781D01*
X188294386Y-55549715D01*
X188128786Y-55670028D01*
X187984028Y-55814786D01*
X187863715Y-55980386D01*
X187770781Y-56162776D01*
X187707522Y-56357465D01*
X187675500Y-56559648D01*
X187675500Y-56764351D01*
X187707522Y-56966534D01*
X187770781Y-57161223D01*
X187817714Y-57253333D01*
X187859573Y-57335485D01*
X187863715Y-57343613D01*
X187984028Y-57509213D01*
X188128786Y-57653971D01*
X188174498Y-57687182D01*
X188217164Y-57742511D01*
X188223143Y-57812125D01*
X188190538Y-57873920D01*
X188129699Y-57908277D01*
X188101613Y-57911500D01*
X176959578Y-57911500D01*
X176765173Y-57942290D01*
X176577969Y-58003117D01*
X176402594Y-58092476D01*
X176311741Y-58158485D01*
X176243354Y-58208172D01*
X176243352Y-58208174D01*
X176243351Y-58208174D01*
X173290174Y-61161351D01*
X173290174Y-61161352D01*
X173290172Y-61161354D01*
X173240485Y-61229741D01*
X173174476Y-61320594D01*
X173085117Y-61495969D01*
X173052618Y-61595993D01*
X173024290Y-61683173D01*
X172993500Y-61877577D01*
X172993500Y-70710422D01*
X173024290Y-70904826D01*
X173085117Y-71092030D01*
X173161022Y-71241000D01*
X173174476Y-71267405D01*
X173290172Y-71426646D01*
X175169671Y-73306145D01*
X175169672Y-73306146D01*
X175308854Y-73445328D01*
X175468095Y-73561024D01*
X175643475Y-73650384D01*
X175643479Y-73650386D01*
X175727723Y-73677758D01*
X175769846Y-73691444D01*
X175769847Y-73691445D01*
X175769848Y-73691445D01*
X175830673Y-73711209D01*
X175903576Y-73722755D01*
X176025078Y-73742000D01*
X176025083Y-73742000D01*
X176221916Y-73742000D01*
X176814001Y-73742000D01*
X176881040Y-73761685D01*
X176926795Y-73814489D01*
X176938001Y-73866000D01*
X176938001Y-74539376D01*
X176944408Y-74598983D01*
X176994702Y-74733828D01*
X176994706Y-74733835D01*
X177080952Y-74849044D01*
X177080955Y-74849047D01*
X177196164Y-74935293D01*
X177196171Y-74935297D01*
X177241118Y-74952061D01*
X177331017Y-74985591D01*
X177390627Y-74992000D01*
X177564000Y-74991999D01*
X177631039Y-75011683D01*
X177676794Y-75064487D01*
X177688000Y-75115999D01*
X177688000Y-80992922D01*
X177718790Y-81187326D01*
X177779617Y-81374530D01*
X177868976Y-81549905D01*
X177984672Y-81709146D01*
X177984674Y-81709148D01*
X183185465Y-86909940D01*
X183218950Y-86971263D01*
X183213966Y-87040955D01*
X183172094Y-87096888D01*
X183158078Y-87105896D01*
X183042455Y-87192452D01*
X183042452Y-87192455D01*
X182956206Y-87307664D01*
X182956202Y-87307671D01*
X182905908Y-87442517D01*
X182899501Y-87502116D01*
X182899501Y-87502123D01*
X182899500Y-87502135D01*
X182899500Y-90597870D01*
X182899501Y-90597876D01*
X182905908Y-90657483D01*
X182956202Y-90792328D01*
X182956206Y-90792335D01*
X183042452Y-90907544D01*
X183042455Y-90907547D01*
X183157664Y-90993793D01*
X183157671Y-90993797D01*
X183292517Y-91044091D01*
X183300062Y-91045874D01*
X183299523Y-91048151D01*
X183353287Y-91070408D01*
X183393147Y-91127793D01*
X183399500Y-91166975D01*
X183399500Y-119480664D01*
X183379815Y-119547703D01*
X183363181Y-119568345D01*
X160376174Y-142555351D01*
X160376174Y-142555352D01*
X160376172Y-142555354D01*
X160326485Y-142623741D01*
X160260476Y-142714594D01*
X160170669Y-142890851D01*
X160169608Y-142894612D01*
X160110291Y-143077169D01*
X160110291Y-143077172D01*
X160079500Y-143271577D01*
X160079500Y-144368111D01*
X160059815Y-144435150D01*
X160007011Y-144480905D01*
X159937853Y-144490849D01*
X159874297Y-144461824D01*
X159867819Y-144455792D01*
X159767512Y-144355485D01*
X159767510Y-144355483D01*
X159576433Y-144216657D01*
X159540054Y-144198121D01*
X159365996Y-144109433D01*
X159141368Y-144036446D01*
X158908097Y-143999500D01*
X158908092Y-143999500D01*
X158671908Y-143999500D01*
X158671903Y-143999500D01*
X158438631Y-144036446D01*
X158214003Y-144109433D01*
X158003566Y-144216657D01*
X157894550Y-144295862D01*
X157812490Y-144355483D01*
X157812488Y-144355485D01*
X157812487Y-144355485D01*
X157645484Y-144522488D01*
X157620318Y-144557127D01*
X157564987Y-144599792D01*
X157495374Y-144605771D01*
X157433579Y-144573165D01*
X157419682Y-144557127D01*
X157394517Y-144522490D01*
X157227510Y-144355483D01*
X157036433Y-144216657D01*
X157000054Y-144198121D01*
X156825996Y-144109433D01*
X156601368Y-144036446D01*
X156368097Y-143999500D01*
X156368092Y-143999500D01*
X156131908Y-143999500D01*
X156131903Y-143999500D01*
X155898631Y-144036446D01*
X155674003Y-144109433D01*
X155463566Y-144216657D01*
X155354550Y-144295862D01*
X155272490Y-144355483D01*
X155272488Y-144355485D01*
X155272487Y-144355485D01*
X155105485Y-144522487D01*
X155105485Y-144522488D01*
X155105483Y-144522490D01*
X155061688Y-144582769D01*
X154966657Y-144713566D01*
X154859433Y-144924003D01*
X154786446Y-145148631D01*
X154749500Y-145381902D01*
X154749500Y-145618097D01*
X154786446Y-145851368D01*
X154859433Y-146075996D01*
X154932423Y-146219245D01*
X154966657Y-146286433D01*
X155105483Y-146477510D01*
X155272490Y-146644517D01*
X155463567Y-146783343D01*
X155543339Y-146823989D01*
X155674003Y-146890566D01*
X155674005Y-146890566D01*
X155674008Y-146890568D01*
X155786168Y-146927011D01*
X155898631Y-146963553D01*
X156131903Y-147000500D01*
X156131908Y-147000500D01*
X156368097Y-147000500D01*
X156601368Y-146963553D01*
X156622450Y-146956703D01*
X156825992Y-146890568D01*
X157036433Y-146783343D01*
X157227510Y-146644517D01*
X157327819Y-146544208D01*
X157389142Y-146510723D01*
X157458834Y-146515707D01*
X157514767Y-146557579D01*
X157539184Y-146623043D01*
X157539500Y-146631889D01*
X157539500Y-147388422D01*
X157570290Y-147582826D01*
X157631117Y-147770030D01*
X157719312Y-147943120D01*
X157720476Y-147945405D01*
X157836172Y-148104646D01*
X158935354Y-149203828D01*
X159094595Y-149319524D01*
X159122739Y-149333864D01*
X159269969Y-149408882D01*
X159269971Y-149408882D01*
X159269974Y-149408884D01*
X159370318Y-149441487D01*
X159457173Y-149469709D01*
X159651578Y-149500500D01*
X159651583Y-149500500D01*
X167316422Y-149500500D01*
X167510826Y-149469709D01*
X167698026Y-149408884D01*
X167873405Y-149319524D01*
X168032646Y-149203828D01*
X186554339Y-130682135D01*
X189249500Y-130682135D01*
X189249500Y-134563870D01*
X189249501Y-134563876D01*
X189255908Y-134623483D01*
X189306202Y-134758328D01*
X189306206Y-134758335D01*
X189392452Y-134873544D01*
X189392455Y-134873547D01*
X189507664Y-134959793D01*
X189507671Y-134959797D01*
X189642517Y-135010091D01*
X189642516Y-135010091D01*
X189649444Y-135010835D01*
X189702127Y-135016500D01*
X192317872Y-135016499D01*
X192377483Y-135010091D01*
X192512331Y-134959796D01*
X192627546Y-134873546D01*
X192713796Y-134758331D01*
X192764091Y-134623483D01*
X192770500Y-134563873D01*
X192770499Y-132916728D01*
X192764091Y-132857117D01*
X192758317Y-132841636D01*
X192750499Y-132798302D01*
X192750499Y-130682129D01*
X192750498Y-130682123D01*
X192750497Y-130682116D01*
X192744091Y-130622517D01*
X192693796Y-130487669D01*
X192693795Y-130487668D01*
X192693793Y-130487664D01*
X192607547Y-130372455D01*
X192607544Y-130372452D01*
X192492335Y-130286206D01*
X192492328Y-130286202D01*
X192357482Y-130235908D01*
X192357483Y-130235908D01*
X192297883Y-130229501D01*
X192297881Y-130229500D01*
X192297873Y-130229500D01*
X192297864Y-130229500D01*
X189702129Y-130229500D01*
X189702123Y-130229501D01*
X189642516Y-130235908D01*
X189507671Y-130286202D01*
X189507664Y-130286206D01*
X189392455Y-130372452D01*
X189392452Y-130372455D01*
X189306206Y-130487664D01*
X189306202Y-130487671D01*
X189255908Y-130622517D01*
X189249501Y-130682116D01*
X189249501Y-130682123D01*
X189249500Y-130682135D01*
X186554339Y-130682135D01*
X195009829Y-122226645D01*
X195125524Y-122067405D01*
X195214884Y-121892026D01*
X195275709Y-121704826D01*
X195306500Y-121510421D01*
X195306500Y-109092070D01*
X208374500Y-109092070D01*
X208374500Y-109347929D01*
X208414526Y-109600640D01*
X208493588Y-109843972D01*
X208493589Y-109843975D01*
X208609750Y-110071950D01*
X208760132Y-110278935D01*
X208760136Y-110278940D01*
X208941059Y-110459863D01*
X208941064Y-110459867D01*
X209059854Y-110546172D01*
X209148053Y-110610252D01*
X209297080Y-110686185D01*
X209376024Y-110726410D01*
X209376027Y-110726411D01*
X209497693Y-110765942D01*
X209619361Y-110805474D01*
X209872070Y-110845500D01*
X209872071Y-110845500D01*
X210127929Y-110845500D01*
X210127930Y-110845500D01*
X210380639Y-110805474D01*
X210623975Y-110726410D01*
X210851947Y-110610252D01*
X211058942Y-110459862D01*
X211239862Y-110278942D01*
X211390252Y-110071947D01*
X211506410Y-109843975D01*
X211585474Y-109600639D01*
X211625500Y-109347930D01*
X211625500Y-109092070D01*
X211585474Y-108839361D01*
X211506410Y-108596025D01*
X211506410Y-108596024D01*
X211466185Y-108517080D01*
X211390252Y-108368053D01*
X211371038Y-108341607D01*
X211239867Y-108161064D01*
X211239863Y-108161059D01*
X211058940Y-107980136D01*
X211058935Y-107980132D01*
X210851950Y-107829750D01*
X210851949Y-107829749D01*
X210851947Y-107829748D01*
X210778910Y-107792533D01*
X210623975Y-107713589D01*
X210623972Y-107713588D01*
X210380640Y-107634526D01*
X210254284Y-107614513D01*
X210127930Y-107594500D01*
X209872070Y-107594500D01*
X209787833Y-107607842D01*
X209619359Y-107634526D01*
X209376027Y-107713588D01*
X209376024Y-107713589D01*
X209148049Y-107829750D01*
X208941064Y-107980132D01*
X208941059Y-107980136D01*
X208760136Y-108161059D01*
X208760132Y-108161064D01*
X208609750Y-108368049D01*
X208493589Y-108596024D01*
X208493588Y-108596027D01*
X208414526Y-108839359D01*
X208374500Y-109092070D01*
X195306500Y-109092070D01*
X195306500Y-100518336D01*
X195326185Y-100451297D01*
X195342819Y-100430655D01*
X196585974Y-99187500D01*
X199556701Y-99187500D01*
X200317779Y-99187500D01*
X200298750Y-99307642D01*
X200298750Y-99567358D01*
X200317779Y-99687500D01*
X199556701Y-99687500D01*
X199573993Y-99840974D01*
X199573995Y-99840990D01*
X199634102Y-100104337D01*
X199634103Y-100104339D01*
X199723319Y-100359306D01*
X199723321Y-100359310D01*
X199840517Y-100602671D01*
X199984235Y-100831395D01*
X200152654Y-101042587D01*
X200343662Y-101233595D01*
X200554854Y-101402014D01*
X200783578Y-101545732D01*
X201026939Y-101662928D01*
X201026943Y-101662930D01*
X201281910Y-101752146D01*
X201281912Y-101752147D01*
X201545259Y-101812254D01*
X201545275Y-101812256D01*
X201698750Y-101829549D01*
X201698750Y-101068471D01*
X201818892Y-101087500D01*
X202078608Y-101087500D01*
X202198750Y-101068471D01*
X202198750Y-101829548D01*
X202352224Y-101812256D01*
X202352240Y-101812254D01*
X202615587Y-101752147D01*
X202615589Y-101752146D01*
X202870556Y-101662930D01*
X202870560Y-101662928D01*
X203113921Y-101545732D01*
X203342645Y-101402014D01*
X203553837Y-101233595D01*
X203744845Y-101042587D01*
X203913264Y-100831395D01*
X204056982Y-100602671D01*
X204174178Y-100359310D01*
X204174180Y-100359306D01*
X204263396Y-100104339D01*
X204263397Y-100104337D01*
X204323504Y-99840990D01*
X204323506Y-99840974D01*
X204340799Y-99687500D01*
X203579721Y-99687500D01*
X203598750Y-99567358D01*
X203598750Y-99307642D01*
X203579721Y-99187500D01*
X204340799Y-99187500D01*
X204323506Y-99034025D01*
X204323504Y-99034009D01*
X204263397Y-98770662D01*
X204263396Y-98770660D01*
X204174180Y-98515693D01*
X204174178Y-98515689D01*
X204056982Y-98272328D01*
X203913264Y-98043604D01*
X203744845Y-97832412D01*
X203553837Y-97641404D01*
X203342645Y-97472985D01*
X203113921Y-97329267D01*
X202870560Y-97212071D01*
X202870556Y-97212069D01*
X202615589Y-97122853D01*
X202615587Y-97122852D01*
X202352240Y-97062745D01*
X202352224Y-97062743D01*
X202198750Y-97045449D01*
X202198750Y-97806528D01*
X202078608Y-97787500D01*
X201818892Y-97787500D01*
X201698750Y-97806528D01*
X201698750Y-97045449D01*
X201545275Y-97062743D01*
X201545259Y-97062745D01*
X201281912Y-97122852D01*
X201281910Y-97122853D01*
X201026943Y-97212069D01*
X201026939Y-97212071D01*
X200783578Y-97329267D01*
X200554854Y-97472985D01*
X200343662Y-97641404D01*
X200152654Y-97832412D01*
X199984235Y-98043604D01*
X199840517Y-98272328D01*
X199723321Y-98515689D01*
X199723319Y-98515693D01*
X199634103Y-98770660D01*
X199634102Y-98770662D01*
X199573995Y-99034009D01*
X199573993Y-99034025D01*
X199556701Y-99187500D01*
X196585974Y-99187500D01*
X196632401Y-99141073D01*
X198728025Y-97045449D01*
X201953828Y-93819646D01*
X202069524Y-93660405D01*
X202158884Y-93485026D01*
X202219709Y-93297826D01*
X202250500Y-93103422D01*
X202250500Y-87734500D01*
X202270185Y-87667461D01*
X202322989Y-87621706D01*
X202374500Y-87610500D01*
X208625500Y-87610500D01*
X208692539Y-87630185D01*
X208738294Y-87682989D01*
X208749500Y-87734500D01*
X208749500Y-92895410D01*
X208729815Y-92962449D01*
X208725818Y-92968295D01*
X208609750Y-93128049D01*
X208493589Y-93356024D01*
X208493588Y-93356027D01*
X208414526Y-93599359D01*
X208374500Y-93852070D01*
X208374500Y-94107929D01*
X208414526Y-94360640D01*
X208493588Y-94603972D01*
X208493589Y-94603975D01*
X208572533Y-94758910D01*
X208600933Y-94814647D01*
X208609750Y-94831950D01*
X208760132Y-95038935D01*
X208760136Y-95038940D01*
X208941059Y-95219863D01*
X208941064Y-95219867D01*
X209121607Y-95351038D01*
X209148053Y-95370252D01*
X209297080Y-95446185D01*
X209376024Y-95486410D01*
X209376027Y-95486411D01*
X209497693Y-95525942D01*
X209619361Y-95565474D01*
X209872070Y-95605500D01*
X209872071Y-95605500D01*
X210127929Y-95605500D01*
X210127930Y-95605500D01*
X210380639Y-95565474D01*
X210623975Y-95486410D01*
X210851947Y-95370252D01*
X211058942Y-95219862D01*
X211239862Y-95038942D01*
X211390252Y-94831947D01*
X211506410Y-94603975D01*
X211585474Y-94360639D01*
X211625500Y-94107930D01*
X211625500Y-93852070D01*
X211585474Y-93599361D01*
X211539226Y-93457022D01*
X211506411Y-93356027D01*
X211506410Y-93356024D01*
X211466185Y-93277080D01*
X211390252Y-93128053D01*
X211274182Y-92968295D01*
X211250702Y-92902489D01*
X211250500Y-92895410D01*
X211250500Y-87444588D01*
X211270185Y-87377549D01*
X211274164Y-87371728D01*
X211390252Y-87211947D01*
X211506410Y-86983975D01*
X211585474Y-86740639D01*
X211625500Y-86487930D01*
X211625500Y-86232070D01*
X211585474Y-85979361D01*
X211524388Y-85791355D01*
X211506411Y-85736027D01*
X211506410Y-85736024D01*
X211463688Y-85652179D01*
X211390252Y-85508053D01*
X211303008Y-85387971D01*
X211239867Y-85301064D01*
X211239863Y-85301059D01*
X211058940Y-85120136D01*
X211058935Y-85120132D01*
X210851950Y-84969750D01*
X210851949Y-84969749D01*
X210851947Y-84969748D01*
X210778910Y-84932533D01*
X210623975Y-84853589D01*
X210623972Y-84853588D01*
X210380640Y-84774526D01*
X210254284Y-84754513D01*
X210127930Y-84734500D01*
X209872070Y-84734500D01*
X209787833Y-84747842D01*
X209619359Y-84774526D01*
X209376027Y-84853588D01*
X209376024Y-84853589D01*
X209148049Y-84969750D01*
X208988295Y-85085818D01*
X208922489Y-85109298D01*
X208915410Y-85109500D01*
X202374500Y-85109500D01*
X202307461Y-85089815D01*
X202261706Y-85037011D01*
X202250500Y-84985500D01*
X202250500Y-81013577D01*
X202233704Y-80907541D01*
X202219709Y-80819174D01*
X202212206Y-80796083D01*
X202158884Y-80631974D01*
X202069524Y-80456595D01*
X201953829Y-80297355D01*
X197426109Y-75769635D01*
X211168000Y-75769635D01*
X211168000Y-78865370D01*
X211168001Y-78865376D01*
X211174408Y-78924983D01*
X211224702Y-79059828D01*
X211224706Y-79059835D01*
X211310952Y-79175044D01*
X211310955Y-79175047D01*
X211426164Y-79261293D01*
X211426171Y-79261297D01*
X211561017Y-79311591D01*
X211561016Y-79311591D01*
X211567944Y-79312335D01*
X211620627Y-79318000D01*
X213716372Y-79317999D01*
X213775983Y-79311591D01*
X213910831Y-79261296D01*
X214026046Y-79175046D01*
X214112296Y-79059831D01*
X214162591Y-78924983D01*
X214169000Y-78865373D01*
X214168999Y-75769628D01*
X214162591Y-75710017D01*
X214112296Y-75575169D01*
X214112295Y-75575168D01*
X214112293Y-75575164D01*
X214026047Y-75459955D01*
X214026044Y-75459952D01*
X213910835Y-75373706D01*
X213910828Y-75373702D01*
X213775982Y-75323408D01*
X213775983Y-75323408D01*
X213716383Y-75317001D01*
X213716381Y-75317000D01*
X213716373Y-75317000D01*
X213716364Y-75317000D01*
X211620629Y-75317000D01*
X211620623Y-75317001D01*
X211561016Y-75323408D01*
X211426171Y-75373702D01*
X211426164Y-75373706D01*
X211310955Y-75459952D01*
X211310952Y-75459955D01*
X211224706Y-75575164D01*
X211224702Y-75575171D01*
X211174408Y-75710017D01*
X211168001Y-75769616D01*
X211168001Y-75769623D01*
X211168000Y-75769635D01*
X197426109Y-75769635D01*
X188368146Y-66711672D01*
X188208905Y-66595976D01*
X188033530Y-66506617D01*
X187846326Y-66445790D01*
X187651922Y-66415000D01*
X187651917Y-66415000D01*
X181062999Y-66415000D01*
X180995960Y-66395315D01*
X180950205Y-66342511D01*
X180938999Y-66291000D01*
X180938999Y-65617629D01*
X180938998Y-65617623D01*
X180938997Y-65617616D01*
X180932591Y-65558017D01*
X180919906Y-65524008D01*
X180882297Y-65423171D01*
X180882293Y-65423164D01*
X180796047Y-65307955D01*
X180796044Y-65307952D01*
X180680835Y-65221706D01*
X180680828Y-65221702D01*
X180545982Y-65171408D01*
X180545983Y-65171408D01*
X180486383Y-65165001D01*
X180486381Y-65165000D01*
X180486373Y-65165000D01*
X180486364Y-65165000D01*
X177390629Y-65165000D01*
X177390623Y-65165001D01*
X177331016Y-65171408D01*
X177196171Y-65221702D01*
X177196164Y-65221706D01*
X177080955Y-65307952D01*
X177080952Y-65307955D01*
X176994706Y-65423164D01*
X176994702Y-65423171D01*
X176944408Y-65558017D01*
X176938001Y-65617616D01*
X176938001Y-65617623D01*
X176938000Y-65617635D01*
X176938000Y-69713370D01*
X176938001Y-69713376D01*
X176944408Y-69772983D01*
X176994702Y-69907828D01*
X176994703Y-69907830D01*
X177066838Y-70004189D01*
X177091255Y-70069653D01*
X177076404Y-70137926D01*
X177066838Y-70152811D01*
X176994703Y-70249169D01*
X176994702Y-70249171D01*
X176944408Y-70384017D01*
X176938001Y-70443616D01*
X176938001Y-70443623D01*
X176938000Y-70443635D01*
X176938000Y-71117000D01*
X176935449Y-71125685D01*
X176936738Y-71134647D01*
X176925759Y-71158687D01*
X176918315Y-71184039D01*
X176911474Y-71189966D01*
X176907713Y-71198203D01*
X176885478Y-71212492D01*
X176865511Y-71229794D01*
X176854996Y-71232081D01*
X176848935Y-71235977D01*
X176814000Y-71241000D01*
X176692836Y-71241000D01*
X176625797Y-71221315D01*
X176605155Y-71204681D01*
X175530819Y-70130345D01*
X175497334Y-70069022D01*
X175494500Y-70042664D01*
X175494500Y-62893577D01*
X178073500Y-62893577D01*
X178073500Y-63090422D01*
X178104290Y-63284826D01*
X178165117Y-63472029D01*
X178254476Y-63647405D01*
X178370172Y-63806646D01*
X178509354Y-63945828D01*
X178668595Y-64061524D01*
X178751455Y-64103743D01*
X178843970Y-64150882D01*
X178843972Y-64150882D01*
X178843975Y-64150884D01*
X178944317Y-64183487D01*
X179031173Y-64211709D01*
X179225578Y-64242500D01*
X179225583Y-64242500D01*
X179422422Y-64242500D01*
X179616826Y-64211709D01*
X179804025Y-64150884D01*
X179979405Y-64061524D01*
X180138646Y-63945828D01*
X180277828Y-63806646D01*
X180393524Y-63647405D01*
X180482884Y-63472025D01*
X180543709Y-63284826D01*
X180567502Y-63134604D01*
X180574500Y-63090422D01*
X180574500Y-62893577D01*
X180543709Y-62699173D01*
X180505796Y-62582490D01*
X180482884Y-62511975D01*
X180482882Y-62511972D01*
X180482882Y-62511970D01*
X180395407Y-62340291D01*
X180393524Y-62336595D01*
X180277828Y-62177354D01*
X180138646Y-62038172D01*
X179979405Y-61922476D01*
X179804029Y-61833117D01*
X179616826Y-61772290D01*
X179422422Y-61741500D01*
X179422417Y-61741500D01*
X179225583Y-61741500D01*
X179225578Y-61741500D01*
X179031173Y-61772290D01*
X178843970Y-61833117D01*
X178668594Y-61922476D01*
X178577741Y-61988485D01*
X178509354Y-62038172D01*
X178509352Y-62038174D01*
X178509351Y-62038174D01*
X178370174Y-62177351D01*
X178370174Y-62177352D01*
X178370172Y-62177354D01*
X178326828Y-62237011D01*
X178254476Y-62336594D01*
X178165117Y-62511970D01*
X178104290Y-62699173D01*
X178073500Y-62893577D01*
X175494500Y-62893577D01*
X175494500Y-62545336D01*
X175514185Y-62478297D01*
X175530819Y-62457655D01*
X176696839Y-61291635D01*
X211168000Y-61291635D01*
X211168000Y-64387370D01*
X211168001Y-64387373D01*
X211174408Y-64446983D01*
X211224702Y-64581828D01*
X211224706Y-64581835D01*
X211310952Y-64697044D01*
X211310955Y-64697047D01*
X211426164Y-64783293D01*
X211426171Y-64783297D01*
X211561017Y-64833591D01*
X211561016Y-64833591D01*
X211567944Y-64834335D01*
X211620627Y-64840000D01*
X213716372Y-64839999D01*
X213775983Y-64833591D01*
X213910831Y-64783296D01*
X214026046Y-64697046D01*
X214112296Y-64581831D01*
X214162591Y-64446983D01*
X214169000Y-64387373D01*
X214168999Y-61291628D01*
X214162591Y-61232017D01*
X214136235Y-61161354D01*
X214112297Y-61097171D01*
X214112293Y-61097164D01*
X214026047Y-60981955D01*
X214026044Y-60981952D01*
X213910835Y-60895706D01*
X213910828Y-60895702D01*
X213775982Y-60845408D01*
X213775983Y-60845408D01*
X213716383Y-60839001D01*
X213716381Y-60839000D01*
X213716373Y-60839000D01*
X213716364Y-60839000D01*
X211620629Y-60839000D01*
X211620623Y-60839001D01*
X211561016Y-60845408D01*
X211426171Y-60895702D01*
X211426164Y-60895706D01*
X211310955Y-60981952D01*
X211310952Y-60981955D01*
X211224706Y-61097164D01*
X211224702Y-61097171D01*
X211174408Y-61232017D01*
X211168001Y-61291616D01*
X211168001Y-61291623D01*
X211168000Y-61291635D01*
X176696839Y-61291635D01*
X177539655Y-60448819D01*
X177600978Y-60415334D01*
X177627336Y-60412500D01*
X188596498Y-60412500D01*
X188634816Y-60418569D01*
X188648260Y-60422937D01*
X188671466Y-60430477D01*
X188873648Y-60462500D01*
X188873649Y-60462500D01*
X189078351Y-60462500D01*
X189078352Y-60462500D01*
X189280534Y-60430477D01*
X189475219Y-60367220D01*
X189657610Y-60274287D01*
X189686742Y-60253121D01*
X189697672Y-60245181D01*
X189763479Y-60221702D01*
X189770556Y-60221500D01*
X195919922Y-60221500D01*
X196114326Y-60190709D01*
X196301526Y-60129884D01*
X196476905Y-60040524D01*
X196636146Y-59924828D01*
X196657073Y-59903900D01*
X196718392Y-59870415D01*
X196729293Y-59868548D01*
X196805785Y-59858940D01*
X196938752Y-59803863D01*
X197005671Y-59751879D01*
X197494818Y-59262729D01*
X197556141Y-59229245D01*
X197625832Y-59234229D01*
X197670180Y-59262730D01*
X198159321Y-59751871D01*
X198159340Y-59751888D01*
X198226245Y-59803863D01*
X198226246Y-59803864D01*
X198258938Y-59817405D01*
X198359214Y-59858940D01*
X198443287Y-59869500D01*
X199261709Y-59869501D01*
X199345785Y-59858940D01*
X199478752Y-59803863D01*
X199545671Y-59751879D01*
X200124382Y-59173167D01*
X200176364Y-59106253D01*
X200231440Y-58973286D01*
X200242000Y-58889213D01*
X200242001Y-58070791D01*
X200231440Y-57986715D01*
X200176363Y-57853748D01*
X200124379Y-57786829D01*
X199840037Y-57502487D01*
X199635230Y-57297680D01*
X199601745Y-57236357D01*
X199606729Y-57166665D01*
X199635228Y-57122320D01*
X200124382Y-56633167D01*
X200176364Y-56566253D01*
X200231440Y-56433286D01*
X200242000Y-56349213D01*
X200242001Y-55530791D01*
X200231440Y-55446715D01*
X200176363Y-55313748D01*
X200124379Y-55246829D01*
X199959731Y-55082181D01*
X199926246Y-55020858D01*
X199931230Y-54951166D01*
X199973102Y-54895233D01*
X200038566Y-54870816D01*
X200047412Y-54870500D01*
X215180500Y-54870500D01*
X215247539Y-54890185D01*
X215293294Y-54942989D01*
X215304500Y-54994500D01*
X215304500Y-115305500D01*
X215284815Y-115372539D01*
X215232011Y-115418294D01*
X215180500Y-115429500D01*
X196223866Y-115429500D01*
X196150175Y-115460024D01*
X196093774Y-115516425D01*
X196063250Y-115590116D01*
X196063250Y-115590118D01*
X196063250Y-135275118D01*
X196063250Y-135354882D01*
X196093774Y-135428574D01*
X196150176Y-135484976D01*
X196223868Y-135515500D01*
X205020500Y-135515500D01*
X205087539Y-135535185D01*
X205133294Y-135587989D01*
X205144500Y-135639500D01*
X205144500Y-149935500D01*
X205124815Y-150002539D01*
X205072011Y-150048294D01*
X205020500Y-150059500D01*
X90274500Y-150059500D01*
X90207461Y-150039815D01*
X90161706Y-149987011D01*
X90150500Y-149935500D01*
X90150500Y-137922500D01*
X96447951Y-137922500D01*
X97209029Y-137922500D01*
X97190000Y-138042642D01*
X97190000Y-138302358D01*
X97209029Y-138422500D01*
X96447951Y-138422500D01*
X96465243Y-138575974D01*
X96465245Y-138575990D01*
X96525352Y-138839337D01*
X96525353Y-138839339D01*
X96614569Y-139094306D01*
X96614571Y-139094310D01*
X96731767Y-139337671D01*
X96875485Y-139566395D01*
X97043904Y-139777587D01*
X97234912Y-139968595D01*
X97446104Y-140137014D01*
X97674828Y-140280732D01*
X97918189Y-140397928D01*
X97918193Y-140397930D01*
X98173160Y-140487146D01*
X98173162Y-140487147D01*
X98436509Y-140547254D01*
X98436525Y-140547256D01*
X98590000Y-140564549D01*
X98590000Y-139803471D01*
X98710142Y-139822500D01*
X98969858Y-139822500D01*
X99090000Y-139803471D01*
X99090000Y-140564548D01*
X99243474Y-140547256D01*
X99243490Y-140547254D01*
X99506837Y-140487147D01*
X99506839Y-140487146D01*
X99761806Y-140397930D01*
X99761810Y-140397928D01*
X100005171Y-140280732D01*
X100233895Y-140137014D01*
X100445087Y-139968595D01*
X100636095Y-139777587D01*
X100804514Y-139566395D01*
X100948232Y-139337671D01*
X101065428Y-139094310D01*
X101065430Y-139094306D01*
X101154646Y-138839339D01*
X101154647Y-138839337D01*
X101214754Y-138575990D01*
X101214756Y-138575974D01*
X101232049Y-138422500D01*
X100470971Y-138422500D01*
X100490000Y-138302358D01*
X100490000Y-138042642D01*
X100470971Y-137922500D01*
X101232050Y-137922500D01*
X101232049Y-137922499D01*
X101225269Y-137862318D01*
X101224161Y-137852486D01*
X114589500Y-137852486D01*
X114589500Y-138147513D01*
X114609887Y-138302358D01*
X114628007Y-138439993D01*
X114664443Y-138575974D01*
X114704361Y-138724951D01*
X114704364Y-138724961D01*
X114817254Y-138997500D01*
X114817258Y-138997510D01*
X114964761Y-139252993D01*
X115144352Y-139487040D01*
X115144358Y-139487047D01*
X115352952Y-139695641D01*
X115352959Y-139695647D01*
X115587006Y-139875238D01*
X115842489Y-140022741D01*
X115842490Y-140022741D01*
X115842493Y-140022743D01*
X116115048Y-140135639D01*
X116400007Y-140211993D01*
X116678415Y-140248646D01*
X116692478Y-140250498D01*
X116692494Y-140250500D01*
X116692501Y-140250500D01*
X116987499Y-140250500D01*
X116987506Y-140250500D01*
X117279993Y-140211993D01*
X117564952Y-140135639D01*
X117837507Y-140022743D01*
X118092994Y-139875238D01*
X118327042Y-139695646D01*
X118535646Y-139487042D01*
X118715238Y-139252994D01*
X118862743Y-138997507D01*
X118975639Y-138724952D01*
X119051993Y-138439993D01*
X119090500Y-138147506D01*
X119090500Y-137852494D01*
X119051993Y-137560007D01*
X118975639Y-137275048D01*
X118862743Y-137002493D01*
X118811623Y-136913951D01*
X118715238Y-136747006D01*
X118535647Y-136512959D01*
X118535641Y-136512952D01*
X118327047Y-136304358D01*
X118327040Y-136304352D01*
X118092993Y-136124761D01*
X117837510Y-135977258D01*
X117837500Y-135977254D01*
X117564961Y-135864364D01*
X117564954Y-135864362D01*
X117564952Y-135864361D01*
X117279993Y-135788007D01*
X117222585Y-135780449D01*
X116987513Y-135749500D01*
X116987506Y-135749500D01*
X116692494Y-135749500D01*
X116692486Y-135749500D01*
X116414085Y-135786153D01*
X116400007Y-135788007D01*
X116332087Y-135806206D01*
X116115048Y-135864361D01*
X116115038Y-135864364D01*
X115842499Y-135977254D01*
X115842489Y-135977258D01*
X115587006Y-136124761D01*
X115352959Y-136304352D01*
X115352952Y-136304358D01*
X115144358Y-136512952D01*
X115144352Y-136512959D01*
X114964761Y-136747006D01*
X114817258Y-137002489D01*
X114817254Y-137002499D01*
X114704364Y-137275038D01*
X114704361Y-137275048D01*
X114628008Y-137560004D01*
X114628006Y-137560015D01*
X114589500Y-137852486D01*
X101224161Y-137852486D01*
X101214756Y-137769025D01*
X101214754Y-137769009D01*
X101154647Y-137505662D01*
X101154646Y-137505660D01*
X101065430Y-137250693D01*
X101065428Y-137250689D01*
X100948232Y-137007328D01*
X100804514Y-136778604D01*
X100636095Y-136567412D01*
X100445087Y-136376404D01*
X100233895Y-136207985D01*
X100005171Y-136064267D01*
X99761810Y-135947071D01*
X99761806Y-135947069D01*
X99506839Y-135857853D01*
X99506837Y-135857852D01*
X99243490Y-135797745D01*
X99243474Y-135797743D01*
X99090000Y-135780449D01*
X99090000Y-136541528D01*
X98969858Y-136522500D01*
X98710142Y-136522500D01*
X98590000Y-136541528D01*
X98590000Y-135780449D01*
X98436525Y-135797743D01*
X98436509Y-135797745D01*
X98173162Y-135857852D01*
X98173160Y-135857853D01*
X97918193Y-135947069D01*
X97918189Y-135947071D01*
X97674828Y-136064267D01*
X97446104Y-136207985D01*
X97234912Y-136376404D01*
X97043904Y-136567412D01*
X96875485Y-136778604D01*
X96731767Y-137007328D01*
X96614571Y-137250689D01*
X96614569Y-137250693D01*
X96525353Y-137505660D01*
X96525352Y-137505662D01*
X96465245Y-137769009D01*
X96465243Y-137769025D01*
X96447951Y-137922500D01*
X90150500Y-137922500D01*
X90150500Y-128000000D01*
X92000000Y-128000000D01*
X105000000Y-128000000D01*
X105000000Y-112000000D01*
X92000000Y-112000000D01*
X92000000Y-128000000D01*
X90150500Y-128000000D01*
X90150500Y-62131577D01*
X92729500Y-62131577D01*
X92729500Y-71794422D01*
X92760290Y-71988826D01*
X92821117Y-72176030D01*
X92910476Y-72351405D01*
X93026172Y-72510646D01*
X93026174Y-72510648D01*
X95233181Y-74717655D01*
X95266666Y-74778978D01*
X95269500Y-74805336D01*
X95269500Y-78414422D01*
X95300291Y-78608826D01*
X95300291Y-78608829D01*
X95313431Y-78649268D01*
X95319500Y-78687582D01*
X95319500Y-78716000D01*
X95319501Y-78716018D01*
X95330001Y-78818797D01*
X95330001Y-78818799D01*
X95385185Y-78985331D01*
X95385187Y-78985336D01*
X95477289Y-79134657D01*
X95570951Y-79228319D01*
X95604436Y-79289642D01*
X95599452Y-79359334D01*
X95570951Y-79403681D01*
X95477289Y-79497342D01*
X95385187Y-79646663D01*
X95385186Y-79646666D01*
X95330001Y-79813203D01*
X95330001Y-79813204D01*
X95330000Y-79813204D01*
X95319500Y-79915983D01*
X95319500Y-79944414D01*
X95313431Y-79982732D01*
X95300291Y-80023172D01*
X95269500Y-80217577D01*
X95269500Y-84016498D01*
X95263431Y-84054816D01*
X95251523Y-84091464D01*
X95219500Y-84293648D01*
X95219500Y-84498351D01*
X95251522Y-84700534D01*
X95314781Y-84895223D01*
X95373009Y-85009500D01*
X95389952Y-85042753D01*
X95407715Y-85077613D01*
X95528028Y-85243213D01*
X95672786Y-85387971D01*
X95799109Y-85479748D01*
X95838390Y-85508287D01*
X95954607Y-85567503D01*
X96020776Y-85601218D01*
X96020778Y-85601218D01*
X96020781Y-85601220D01*
X96125137Y-85635127D01*
X96215465Y-85664477D01*
X96316557Y-85680488D01*
X96417648Y-85696500D01*
X96417649Y-85696500D01*
X96622351Y-85696500D01*
X96622352Y-85696500D01*
X96824534Y-85664477D01*
X96852714Y-85655320D01*
X96861184Y-85652569D01*
X96899502Y-85646500D01*
X98369500Y-85646500D01*
X98436539Y-85666185D01*
X98482294Y-85718989D01*
X98493500Y-85770500D01*
X98493500Y-88874918D01*
X98473815Y-88941957D01*
X98421011Y-88987712D01*
X98351853Y-88997656D01*
X98288297Y-88968631D01*
X98281819Y-88962599D01*
X98181186Y-88861966D01*
X97990171Y-88723185D01*
X97779802Y-88615997D01*
X97555247Y-88543034D01*
X97454000Y-88526997D01*
X97454000Y-89573088D01*
X97396993Y-89540175D01*
X97269826Y-89506100D01*
X97138174Y-89506100D01*
X97011007Y-89540175D01*
X96954000Y-89573088D01*
X96954000Y-88526997D01*
X96852752Y-88543034D01*
X96628197Y-88615997D01*
X96417828Y-88723185D01*
X96226813Y-88861966D01*
X96059863Y-89028916D01*
X96021788Y-89081322D01*
X95966457Y-89123987D01*
X95896844Y-89129965D01*
X95835049Y-89097358D01*
X95821153Y-89081320D01*
X95799138Y-89051019D01*
X95799133Y-89051013D01*
X95632186Y-88884066D01*
X95441171Y-88745285D01*
X95230802Y-88638097D01*
X95006247Y-88565134D01*
X94905000Y-88549097D01*
X94905000Y-89595188D01*
X94847993Y-89562275D01*
X94720826Y-89528200D01*
X94589174Y-89528200D01*
X94462007Y-89562275D01*
X94405000Y-89595188D01*
X94405000Y-88549097D01*
X94303752Y-88565134D01*
X94079197Y-88638097D01*
X93868828Y-88745285D01*
X93677813Y-88884066D01*
X93510866Y-89051013D01*
X93372085Y-89242028D01*
X93264897Y-89452397D01*
X93191934Y-89676952D01*
X93175898Y-89778200D01*
X94221988Y-89778200D01*
X94189075Y-89835207D01*
X94155000Y-89962374D01*
X94155000Y-90094026D01*
X94189075Y-90221193D01*
X94221988Y-90278200D01*
X93175898Y-90278200D01*
X93191934Y-90379447D01*
X93264897Y-90604002D01*
X93372085Y-90814371D01*
X93510866Y-91005386D01*
X93677813Y-91172333D01*
X93868828Y-91311114D01*
X94079195Y-91418302D01*
X94303744Y-91491263D01*
X94303750Y-91491265D01*
X94405000Y-91507301D01*
X94405000Y-90461212D01*
X94462007Y-90494125D01*
X94589174Y-90528200D01*
X94720826Y-90528200D01*
X94847993Y-90494125D01*
X94905000Y-90461212D01*
X94905000Y-91507300D01*
X95006249Y-91491265D01*
X95006255Y-91491263D01*
X95230804Y-91418302D01*
X95441171Y-91311114D01*
X95632186Y-91172333D01*
X95799139Y-91005380D01*
X95837209Y-90952980D01*
X95892538Y-90910314D01*
X95962151Y-90904333D01*
X96023947Y-90936938D01*
X96037846Y-90952978D01*
X96059866Y-90983286D01*
X96226813Y-91150233D01*
X96417828Y-91289014D01*
X96628195Y-91396202D01*
X96852744Y-91469163D01*
X96852750Y-91469165D01*
X96954000Y-91485201D01*
X96954000Y-90439112D01*
X97011007Y-90472025D01*
X97138174Y-90506100D01*
X97269826Y-90506100D01*
X97396993Y-90472025D01*
X97454000Y-90439112D01*
X97454000Y-91485200D01*
X97555249Y-91469165D01*
X97555255Y-91469163D01*
X97779804Y-91396202D01*
X97990171Y-91289014D01*
X98181186Y-91150233D01*
X98348137Y-90983282D01*
X98373371Y-90948550D01*
X98428700Y-90905883D01*
X98498314Y-90899902D01*
X98560109Y-90932507D01*
X98574008Y-90948547D01*
X98599483Y-90983610D01*
X98766490Y-91150617D01*
X98957567Y-91289443D01*
X99000099Y-91311114D01*
X99168003Y-91396666D01*
X99168005Y-91396666D01*
X99168008Y-91396668D01*
X99236025Y-91418768D01*
X99392631Y-91469653D01*
X99625903Y-91506600D01*
X99625908Y-91506600D01*
X99862097Y-91506600D01*
X100095368Y-91469653D01*
X100096876Y-91469163D01*
X100319992Y-91396668D01*
X100530433Y-91289443D01*
X100721510Y-91150617D01*
X100888517Y-90983610D01*
X100905651Y-90960026D01*
X100960979Y-90917359D01*
X101030593Y-90911378D01*
X101092389Y-90943982D01*
X101106288Y-90960022D01*
X101139482Y-91005709D01*
X101139483Y-91005710D01*
X101306490Y-91172717D01*
X101497567Y-91311543D01*
X101596991Y-91362202D01*
X101708003Y-91418766D01*
X101708005Y-91418766D01*
X101708008Y-91418768D01*
X101828412Y-91457889D01*
X101932631Y-91491753D01*
X102165903Y-91528700D01*
X102165908Y-91528700D01*
X102402097Y-91528700D01*
X102635368Y-91491753D01*
X102655536Y-91485200D01*
X102859992Y-91418768D01*
X103070433Y-91311543D01*
X103076799Y-91306917D01*
X103083043Y-91302382D01*
X103148849Y-91278902D01*
X103155928Y-91278700D01*
X117398864Y-91278700D01*
X117465903Y-91298385D01*
X117486545Y-91315019D01*
X120413181Y-94241655D01*
X120446666Y-94302978D01*
X120449500Y-94329336D01*
X120449500Y-144706804D01*
X120429815Y-144773843D01*
X120423423Y-144782876D01*
X120376136Y-144843745D01*
X120376135Y-144843746D01*
X120321061Y-144976710D01*
X120321059Y-144976717D01*
X120310500Y-145060783D01*
X120310499Y-145060790D01*
X120310499Y-145879210D01*
X120321059Y-145963282D01*
X120321060Y-145963286D01*
X120376136Y-146096251D01*
X120387738Y-146111186D01*
X120428121Y-146163171D01*
X120428125Y-146163175D01*
X120428126Y-146163176D01*
X120917268Y-146652318D01*
X120950753Y-146713641D01*
X120945769Y-146783333D01*
X120917268Y-146827680D01*
X120428128Y-147316821D01*
X120428111Y-147316840D01*
X120376136Y-147383745D01*
X120376135Y-147383746D01*
X120321061Y-147516710D01*
X120321059Y-147516717D01*
X120310500Y-147600783D01*
X120310499Y-147600790D01*
X120310499Y-148419210D01*
X120321059Y-148503282D01*
X120321060Y-148503286D01*
X120376136Y-148636251D01*
X120376137Y-148636252D01*
X120428121Y-148703171D01*
X120428125Y-148703175D01*
X120428126Y-148703176D01*
X121006821Y-149281871D01*
X121006840Y-149281888D01*
X121073745Y-149333863D01*
X121073746Y-149333864D01*
X121146463Y-149363983D01*
X121206714Y-149388940D01*
X121290787Y-149399500D01*
X122109209Y-149399501D01*
X122193285Y-149388940D01*
X122326252Y-149333863D01*
X122393171Y-149281879D01*
X122882674Y-148792374D01*
X122943995Y-148758891D01*
X123013686Y-148763875D01*
X123058034Y-148792376D01*
X123547154Y-149281496D01*
X123547167Y-149281507D01*
X123614005Y-149333429D01*
X123746839Y-149388450D01*
X123830825Y-149398999D01*
X123989999Y-149398999D01*
X123990000Y-149398998D01*
X123990000Y-148452251D01*
X124043919Y-148483381D01*
X124173120Y-148518000D01*
X124306880Y-148518000D01*
X124436081Y-148483381D01*
X124490000Y-148452251D01*
X124490000Y-149398999D01*
X124649170Y-149398999D01*
X124733160Y-149388451D01*
X124865993Y-149333429D01*
X124932840Y-149281500D01*
X124932846Y-149281495D01*
X125422319Y-148792023D01*
X125483642Y-148758538D01*
X125553334Y-148763522D01*
X125597681Y-148792023D01*
X126087154Y-149281496D01*
X126087167Y-149281507D01*
X126154005Y-149333429D01*
X126286839Y-149388450D01*
X126370825Y-149398999D01*
X126529999Y-149398999D01*
X126530000Y-149398998D01*
X126530000Y-148452251D01*
X126583919Y-148483381D01*
X126713120Y-148518000D01*
X126846880Y-148518000D01*
X126976081Y-148483381D01*
X127030000Y-148452251D01*
X127030000Y-149398999D01*
X127189170Y-149398999D01*
X127273160Y-149388451D01*
X127405993Y-149333429D01*
X127472840Y-149281500D01*
X127472846Y-149281495D01*
X128051496Y-148702845D01*
X128051507Y-148702832D01*
X128103429Y-148635994D01*
X128103429Y-148635993D01*
X128158450Y-148503160D01*
X128168999Y-148419177D01*
X128169000Y-148419171D01*
X128169000Y-148260000D01*
X127222251Y-148260000D01*
X127253381Y-148206081D01*
X127288000Y-148076880D01*
X127288000Y-147943120D01*
X127253381Y-147813919D01*
X127222251Y-147760000D01*
X128168999Y-147760000D01*
X128168999Y-147600829D01*
X128158451Y-147516839D01*
X128103429Y-147384006D01*
X128051500Y-147317159D01*
X128051495Y-147317153D01*
X127562376Y-146828034D01*
X127528891Y-146766711D01*
X127533875Y-146697019D01*
X127562372Y-146652677D01*
X128051882Y-146163167D01*
X128103864Y-146096253D01*
X128158940Y-145963286D01*
X128169500Y-145879213D01*
X128169501Y-145060791D01*
X128158940Y-144976715D01*
X128103863Y-144843748D01*
X128051879Y-144776829D01*
X127764327Y-144489277D01*
X127473178Y-144198128D01*
X127473159Y-144198111D01*
X127406254Y-144146136D01*
X127406253Y-144146135D01*
X127273289Y-144091061D01*
X127273287Y-144091060D01*
X127273286Y-144091060D01*
X127273285Y-144091059D01*
X127273282Y-144091059D01*
X127189216Y-144080500D01*
X127189209Y-144080499D01*
X126370789Y-144080499D01*
X126286717Y-144091059D01*
X126286713Y-144091060D01*
X126153748Y-144146136D01*
X126086829Y-144198121D01*
X126086823Y-144198126D01*
X125597681Y-144687269D01*
X125536358Y-144720754D01*
X125466666Y-144715770D01*
X125422319Y-144687269D01*
X124933178Y-144198128D01*
X124933159Y-144198111D01*
X124866254Y-144146136D01*
X124866253Y-144146135D01*
X124733289Y-144091061D01*
X124733287Y-144091060D01*
X124733286Y-144091060D01*
X124733285Y-144091059D01*
X124733282Y-144091059D01*
X124649216Y-144080500D01*
X124649209Y-144080499D01*
X123830789Y-144080499D01*
X123746717Y-144091059D01*
X123746713Y-144091060D01*
X123613748Y-144146136D01*
X123546829Y-144198121D01*
X123546823Y-144198126D01*
X123162181Y-144582769D01*
X123100858Y-144616254D01*
X123031166Y-144611270D01*
X122975233Y-144569398D01*
X122950816Y-144503934D01*
X122950500Y-144495088D01*
X122950500Y-136202135D01*
X136179500Y-136202135D01*
X136179500Y-139797870D01*
X136179501Y-139797876D01*
X136185908Y-139857483D01*
X136236202Y-139992328D01*
X136236206Y-139992335D01*
X136322452Y-140107544D01*
X136322455Y-140107547D01*
X136437664Y-140193793D01*
X136437671Y-140193797D01*
X136572517Y-140244091D01*
X136572516Y-140244091D01*
X136579444Y-140244835D01*
X136632127Y-140250500D01*
X140227872Y-140250499D01*
X140287483Y-140244091D01*
X140422331Y-140193796D01*
X140537546Y-140107546D01*
X140623796Y-139992331D01*
X140674091Y-139857483D01*
X140680500Y-139797873D01*
X140680499Y-137852486D01*
X157749500Y-137852486D01*
X157749500Y-138147513D01*
X157769887Y-138302358D01*
X157788007Y-138439993D01*
X157824443Y-138575974D01*
X157864361Y-138724951D01*
X157864364Y-138724961D01*
X157977254Y-138997500D01*
X157977258Y-138997510D01*
X158124761Y-139252993D01*
X158304352Y-139487040D01*
X158304358Y-139487047D01*
X158512952Y-139695641D01*
X158512959Y-139695647D01*
X158747006Y-139875238D01*
X159002489Y-140022741D01*
X159002490Y-140022741D01*
X159002493Y-140022743D01*
X159275048Y-140135639D01*
X159560007Y-140211993D01*
X159838415Y-140248646D01*
X159852478Y-140250498D01*
X159852494Y-140250500D01*
X159852501Y-140250500D01*
X160147499Y-140250500D01*
X160147506Y-140250500D01*
X160439993Y-140211993D01*
X160724952Y-140135639D01*
X160997507Y-140022743D01*
X161252994Y-139875238D01*
X161487042Y-139695646D01*
X161695646Y-139487042D01*
X161875238Y-139252994D01*
X162022743Y-138997507D01*
X162135639Y-138724952D01*
X162211993Y-138439993D01*
X162250500Y-138147506D01*
X162250500Y-137852494D01*
X162211993Y-137560007D01*
X162135639Y-137275048D01*
X162022743Y-137002493D01*
X161971623Y-136913951D01*
X161875238Y-136747006D01*
X161695647Y-136512959D01*
X161695641Y-136512952D01*
X161487047Y-136304358D01*
X161487040Y-136304352D01*
X161252993Y-136124761D01*
X160997510Y-135977258D01*
X160997500Y-135977254D01*
X160724961Y-135864364D01*
X160724954Y-135864362D01*
X160724952Y-135864361D01*
X160439993Y-135788007D01*
X160382585Y-135780449D01*
X160147513Y-135749500D01*
X160147506Y-135749500D01*
X159852494Y-135749500D01*
X159852486Y-135749500D01*
X159574085Y-135786153D01*
X159560007Y-135788007D01*
X159492087Y-135806206D01*
X159275048Y-135864361D01*
X159275038Y-135864364D01*
X159002499Y-135977254D01*
X159002489Y-135977258D01*
X158747006Y-136124761D01*
X158512959Y-136304352D01*
X158512952Y-136304358D01*
X158304358Y-136512952D01*
X158304352Y-136512959D01*
X158124761Y-136747006D01*
X157977258Y-137002489D01*
X157977254Y-137002499D01*
X157864364Y-137275038D01*
X157864361Y-137275048D01*
X157788008Y-137560004D01*
X157788006Y-137560015D01*
X157749500Y-137852486D01*
X140680499Y-137852486D01*
X140680499Y-136202128D01*
X140674091Y-136142517D01*
X140667468Y-136124761D01*
X140623797Y-136007671D01*
X140623793Y-136007664D01*
X140537547Y-135892455D01*
X140537544Y-135892452D01*
X140422335Y-135806206D01*
X140422328Y-135806202D01*
X140287482Y-135755908D01*
X140287483Y-135755908D01*
X140227883Y-135749501D01*
X140227881Y-135749500D01*
X140227873Y-135749500D01*
X140227864Y-135749500D01*
X136632129Y-135749500D01*
X136632123Y-135749501D01*
X136572516Y-135755908D01*
X136437671Y-135806202D01*
X136437664Y-135806206D01*
X136322455Y-135892452D01*
X136322452Y-135892455D01*
X136236206Y-136007664D01*
X136236202Y-136007671D01*
X136185908Y-136142517D01*
X136179501Y-136202116D01*
X136179501Y-136202123D01*
X136179500Y-136202135D01*
X122950500Y-136202135D01*
X122950500Y-93661577D01*
X122934170Y-93558479D01*
X122919709Y-93467174D01*
X122880043Y-93345094D01*
X122858884Y-93279974D01*
X122858882Y-93279971D01*
X122858882Y-93279969D01*
X122769523Y-93104594D01*
X122653828Y-92945354D01*
X118782846Y-89074372D01*
X118623605Y-88958676D01*
X118590792Y-88941957D01*
X118448230Y-88869317D01*
X118261026Y-88808490D01*
X118066622Y-88777700D01*
X118066617Y-88777700D01*
X103155928Y-88777700D01*
X103088889Y-88758015D01*
X103083043Y-88754018D01*
X103070436Y-88744859D01*
X103070435Y-88744858D01*
X103070433Y-88744857D01*
X103004715Y-88711372D01*
X102859996Y-88637633D01*
X102635368Y-88564646D01*
X102402097Y-88527700D01*
X102402092Y-88527700D01*
X102165908Y-88527700D01*
X102165903Y-88527700D01*
X101932631Y-88564646D01*
X101708003Y-88637633D01*
X101497566Y-88744857D01*
X101388550Y-88824062D01*
X101306490Y-88883683D01*
X101306488Y-88883685D01*
X101306487Y-88883685D01*
X101206181Y-88983992D01*
X101144858Y-89017477D01*
X101075166Y-89012493D01*
X101019233Y-88970621D01*
X100994816Y-88905157D01*
X100994500Y-88896311D01*
X100994500Y-85583899D01*
X101014185Y-85516860D01*
X101045614Y-85483581D01*
X101177219Y-85387966D01*
X101321966Y-85243219D01*
X101321968Y-85243215D01*
X101321971Y-85243213D01*
X101376208Y-85168561D01*
X101442287Y-85077610D01*
X101535220Y-84895219D01*
X101598477Y-84700534D01*
X101630500Y-84498352D01*
X101630500Y-84293648D01*
X101598477Y-84091466D01*
X101586569Y-84054816D01*
X101580500Y-84016498D01*
X101580500Y-80217577D01*
X101549709Y-80023173D01*
X101536568Y-79982730D01*
X101530499Y-79944411D01*
X101530499Y-79915998D01*
X101530498Y-79915981D01*
X101519999Y-79813203D01*
X101519998Y-79813200D01*
X101464814Y-79646666D01*
X101372712Y-79497344D01*
X101279049Y-79403681D01*
X101245564Y-79342358D01*
X101250548Y-79272666D01*
X101279049Y-79228319D01*
X101372712Y-79134656D01*
X101464814Y-78985334D01*
X101519999Y-78818797D01*
X101530500Y-78716009D01*
X101530499Y-78687584D01*
X101536567Y-78649267D01*
X101549709Y-78608826D01*
X101566504Y-78502784D01*
X101580500Y-78414422D01*
X101580500Y-74615500D01*
X101586569Y-74577182D01*
X101598477Y-74540534D01*
X101630500Y-74338352D01*
X101630500Y-74133648D01*
X101598477Y-73931466D01*
X101586569Y-73894816D01*
X101580500Y-73856498D01*
X101580500Y-64621577D01*
X101553666Y-64452158D01*
X101549709Y-64427174D01*
X101536777Y-64387373D01*
X101488884Y-64239974D01*
X101469604Y-64202135D01*
X114589500Y-64202135D01*
X114589500Y-67797870D01*
X114589501Y-67797876D01*
X114595908Y-67857483D01*
X114646202Y-67992328D01*
X114646206Y-67992335D01*
X114732452Y-68107544D01*
X114732455Y-68107547D01*
X114847664Y-68193793D01*
X114847671Y-68193797D01*
X114982517Y-68244091D01*
X114982516Y-68244091D01*
X114989444Y-68244835D01*
X115042127Y-68250500D01*
X118637872Y-68250499D01*
X118697483Y-68244091D01*
X118832331Y-68193796D01*
X118947546Y-68107546D01*
X119033796Y-67992331D01*
X119084091Y-67857483D01*
X119090500Y-67797873D01*
X119090499Y-65852486D01*
X136179500Y-65852486D01*
X136179500Y-66147513D01*
X136205173Y-66342511D01*
X136218007Y-66439993D01*
X136290803Y-66711672D01*
X136294361Y-66724951D01*
X136294364Y-66724961D01*
X136407254Y-66997500D01*
X136407258Y-66997510D01*
X136554761Y-67252993D01*
X136734352Y-67487040D01*
X136734358Y-67487047D01*
X136942952Y-67695641D01*
X136942959Y-67695647D01*
X137177006Y-67875238D01*
X137432489Y-68022741D01*
X137432490Y-68022741D01*
X137432493Y-68022743D01*
X137705048Y-68135639D01*
X137990007Y-68211993D01*
X138268415Y-68248646D01*
X138282478Y-68250498D01*
X138282494Y-68250500D01*
X138282501Y-68250500D01*
X138577499Y-68250500D01*
X138577506Y-68250500D01*
X138869993Y-68211993D01*
X139154952Y-68135639D01*
X139427507Y-68022743D01*
X139682994Y-67875238D01*
X139917042Y-67695646D01*
X140125646Y-67487042D01*
X140305238Y-67252994D01*
X140452743Y-66997507D01*
X140565639Y-66724952D01*
X140641993Y-66439993D01*
X140680500Y-66147506D01*
X140680500Y-65852494D01*
X140641993Y-65560007D01*
X140565639Y-65275048D01*
X140560639Y-65262978D01*
X140502447Y-65122490D01*
X140452743Y-65002493D01*
X140425602Y-64955484D01*
X140305238Y-64747006D01*
X140125647Y-64512959D01*
X140125641Y-64512952D01*
X139917047Y-64304358D01*
X139917040Y-64304352D01*
X139907696Y-64297182D01*
X139783829Y-64202135D01*
X157749500Y-64202135D01*
X157749500Y-67797870D01*
X157749501Y-67797876D01*
X157755908Y-67857483D01*
X157806202Y-67992328D01*
X157806206Y-67992335D01*
X157892452Y-68107544D01*
X157892455Y-68107547D01*
X158007664Y-68193793D01*
X158007671Y-68193797D01*
X158052618Y-68210561D01*
X158142517Y-68244091D01*
X158202127Y-68250500D01*
X158625500Y-68250499D01*
X158692539Y-68270183D01*
X158738294Y-68322987D01*
X158749500Y-68374499D01*
X158749500Y-94098422D01*
X158780290Y-94292826D01*
X158841117Y-94480030D01*
X158904271Y-94603975D01*
X158930476Y-94655405D01*
X159046172Y-94814646D01*
X176546171Y-112314645D01*
X176546172Y-112314646D01*
X178046171Y-113814645D01*
X178046172Y-113814646D01*
X178185354Y-113953828D01*
X178344595Y-114069524D01*
X178519971Y-114158882D01*
X178519979Y-114158886D01*
X178604223Y-114186258D01*
X178646346Y-114199944D01*
X178646347Y-114199945D01*
X178646348Y-114199945D01*
X178707173Y-114219709D01*
X178780076Y-114231255D01*
X178901578Y-114250500D01*
X178901583Y-114250500D01*
X181098422Y-114250500D01*
X181292826Y-114219709D01*
X181480025Y-114158884D01*
X181655405Y-114069524D01*
X181814646Y-113953828D01*
X181953828Y-113814646D01*
X182069524Y-113655405D01*
X182158884Y-113480025D01*
X182219709Y-113292826D01*
X182250500Y-113098422D01*
X182250500Y-112901577D01*
X182219709Y-112707173D01*
X182158882Y-112519970D01*
X182069523Y-112344594D01*
X181953828Y-112185354D01*
X181814646Y-112046172D01*
X181655405Y-111930476D01*
X181480029Y-111841117D01*
X181292826Y-111780290D01*
X181098422Y-111749500D01*
X181098417Y-111749500D01*
X179569336Y-111749500D01*
X179502297Y-111729815D01*
X179481655Y-111713181D01*
X161286819Y-93518345D01*
X161253334Y-93457022D01*
X161250500Y-93430664D01*
X161250500Y-92582135D01*
X171469500Y-92582135D01*
X171469500Y-95677870D01*
X171469501Y-95677876D01*
X171475908Y-95737483D01*
X171526202Y-95872328D01*
X171526206Y-95872335D01*
X171612452Y-95987544D01*
X171612455Y-95987547D01*
X171727664Y-96073793D01*
X171727671Y-96073797D01*
X171862517Y-96124091D01*
X171862516Y-96124091D01*
X171869444Y-96124835D01*
X171922127Y-96130500D01*
X174517872Y-96130499D01*
X174577483Y-96124091D01*
X174712331Y-96073796D01*
X174827546Y-95987546D01*
X174913796Y-95872331D01*
X174964091Y-95737483D01*
X174970500Y-95677873D01*
X174970499Y-92582128D01*
X174964091Y-92522517D01*
X174913796Y-92387669D01*
X174913795Y-92387668D01*
X174913793Y-92387664D01*
X174827547Y-92272455D01*
X174827544Y-92272452D01*
X174712335Y-92186206D01*
X174712328Y-92186202D01*
X174577482Y-92135908D01*
X174577483Y-92135908D01*
X174517883Y-92129501D01*
X174517881Y-92129500D01*
X174517873Y-92129500D01*
X174517864Y-92129500D01*
X171922129Y-92129500D01*
X171922123Y-92129501D01*
X171862516Y-92135908D01*
X171727671Y-92186202D01*
X171727664Y-92186206D01*
X171612455Y-92272452D01*
X171612452Y-92272455D01*
X171526206Y-92387664D01*
X171526202Y-92387671D01*
X171475908Y-92522517D01*
X171469501Y-92582116D01*
X171469501Y-92582123D01*
X171469500Y-92582135D01*
X161250500Y-92582135D01*
X161250500Y-87502135D01*
X177819500Y-87502135D01*
X177819500Y-90597870D01*
X177819501Y-90597876D01*
X177825908Y-90657483D01*
X177876202Y-90792328D01*
X177876206Y-90792335D01*
X177962452Y-90907544D01*
X177962455Y-90907547D01*
X178077664Y-90993793D01*
X178077671Y-90993797D01*
X178212517Y-91044091D01*
X178212516Y-91044091D01*
X178219444Y-91044835D01*
X178272127Y-91050500D01*
X180867872Y-91050499D01*
X180927483Y-91044091D01*
X181062331Y-90993796D01*
X181177546Y-90907546D01*
X181263796Y-90792331D01*
X181314091Y-90657483D01*
X181320500Y-90597873D01*
X181320499Y-87502128D01*
X181314091Y-87442517D01*
X181263796Y-87307669D01*
X181263795Y-87307668D01*
X181263793Y-87307664D01*
X181177547Y-87192455D01*
X181177544Y-87192452D01*
X181062335Y-87106206D01*
X181062328Y-87106202D01*
X180927482Y-87055908D01*
X180927483Y-87055908D01*
X180867883Y-87049501D01*
X180867881Y-87049500D01*
X180867873Y-87049500D01*
X180867864Y-87049500D01*
X178272129Y-87049500D01*
X178272123Y-87049501D01*
X178212516Y-87055908D01*
X178077671Y-87106202D01*
X178077664Y-87106206D01*
X177962455Y-87192452D01*
X177962452Y-87192455D01*
X177876206Y-87307664D01*
X177876202Y-87307671D01*
X177825908Y-87442517D01*
X177819501Y-87502116D01*
X177819501Y-87502123D01*
X177819500Y-87502135D01*
X161250500Y-87502135D01*
X161250500Y-68374499D01*
X161270185Y-68307460D01*
X161322989Y-68261705D01*
X161374500Y-68250499D01*
X161797871Y-68250499D01*
X161797872Y-68250499D01*
X161857483Y-68244091D01*
X161992331Y-68193796D01*
X162107546Y-68107546D01*
X162193796Y-67992331D01*
X162244091Y-67857483D01*
X162250500Y-67797873D01*
X162250499Y-64202128D01*
X162244091Y-64142517D01*
X162241657Y-64135992D01*
X162193797Y-64007671D01*
X162193793Y-64007664D01*
X162107547Y-63892455D01*
X162107544Y-63892452D01*
X161992335Y-63806206D01*
X161992328Y-63806202D01*
X161857482Y-63755908D01*
X161857483Y-63755908D01*
X161797883Y-63749501D01*
X161797881Y-63749500D01*
X161797873Y-63749500D01*
X161797864Y-63749500D01*
X158202129Y-63749500D01*
X158202123Y-63749501D01*
X158142516Y-63755908D01*
X158007671Y-63806202D01*
X158007664Y-63806206D01*
X157892455Y-63892452D01*
X157892452Y-63892455D01*
X157806206Y-64007664D01*
X157806202Y-64007671D01*
X157755908Y-64142517D01*
X157755009Y-64150884D01*
X157749501Y-64202123D01*
X157749500Y-64202135D01*
X139783829Y-64202135D01*
X139682993Y-64124761D01*
X139427510Y-63977258D01*
X139427500Y-63977254D01*
X139154961Y-63864364D01*
X139154954Y-63864362D01*
X139154952Y-63864361D01*
X138869993Y-63788007D01*
X138821113Y-63781571D01*
X138577513Y-63749500D01*
X138577506Y-63749500D01*
X138282494Y-63749500D01*
X138282486Y-63749500D01*
X138004085Y-63786153D01*
X137990007Y-63788007D01*
X137705048Y-63864361D01*
X137705038Y-63864364D01*
X137432499Y-63977254D01*
X137432489Y-63977258D01*
X137177006Y-64124761D01*
X136942959Y-64304352D01*
X136942952Y-64304358D01*
X136734358Y-64512952D01*
X136734352Y-64512959D01*
X136554761Y-64747006D01*
X136407258Y-65002489D01*
X136407254Y-65002499D01*
X136294364Y-65275038D01*
X136294361Y-65275048D01*
X136218541Y-65558016D01*
X136218008Y-65560004D01*
X136218006Y-65560015D01*
X136179500Y-65852486D01*
X119090499Y-65852486D01*
X119090499Y-64202128D01*
X119084091Y-64142517D01*
X119081657Y-64135992D01*
X119033797Y-64007671D01*
X119033793Y-64007664D01*
X118947547Y-63892455D01*
X118947544Y-63892452D01*
X118832335Y-63806206D01*
X118832328Y-63806202D01*
X118697482Y-63755908D01*
X118697483Y-63755908D01*
X118637883Y-63749501D01*
X118637881Y-63749500D01*
X118637873Y-63749500D01*
X118637864Y-63749500D01*
X115042129Y-63749500D01*
X115042123Y-63749501D01*
X114982516Y-63755908D01*
X114847671Y-63806202D01*
X114847664Y-63806206D01*
X114732455Y-63892452D01*
X114732452Y-63892455D01*
X114646206Y-64007664D01*
X114646202Y-64007671D01*
X114595908Y-64142517D01*
X114595009Y-64150884D01*
X114589501Y-64202123D01*
X114589500Y-64202135D01*
X101469604Y-64202135D01*
X101399524Y-64064595D01*
X101384742Y-64044250D01*
X101283834Y-63905360D01*
X101283830Y-63905355D01*
X99984648Y-62606174D01*
X99984646Y-62606172D01*
X99825405Y-62490476D01*
X99650030Y-62401117D01*
X99462826Y-62340290D01*
X99268422Y-62309500D01*
X99268417Y-62309500D01*
X98341889Y-62309500D01*
X98274850Y-62289815D01*
X98229095Y-62237011D01*
X98219151Y-62167853D01*
X98248176Y-62104297D01*
X98254208Y-62097819D01*
X98354517Y-61997510D01*
X98493343Y-61806433D01*
X98600568Y-61595992D01*
X98673553Y-61371368D01*
X98681595Y-61320594D01*
X98710500Y-61138097D01*
X98710500Y-60901902D01*
X98673553Y-60668631D01*
X98600566Y-60444003D01*
X98514090Y-60274286D01*
X98493343Y-60233567D01*
X98354517Y-60042490D01*
X98187510Y-59875483D01*
X98152872Y-59850317D01*
X98110207Y-59794989D01*
X98104228Y-59725375D01*
X98136833Y-59663580D01*
X98152873Y-59649682D01*
X98187510Y-59624517D01*
X98354517Y-59457510D01*
X98493343Y-59266433D01*
X98600568Y-59055992D01*
X98673553Y-58831368D01*
X98710500Y-58598097D01*
X98710500Y-58361902D01*
X98673553Y-58128631D01*
X98627441Y-57986715D01*
X98600568Y-57904008D01*
X98600566Y-57904005D01*
X98600566Y-57904003D01*
X98518281Y-57742511D01*
X98493343Y-57693567D01*
X98354517Y-57502490D01*
X98187510Y-57335483D01*
X97996433Y-57196657D01*
X97970888Y-57183641D01*
X97785996Y-57089433D01*
X97561368Y-57016446D01*
X97328097Y-56979500D01*
X97328092Y-56979500D01*
X96551908Y-56979500D01*
X96551903Y-56979500D01*
X96318631Y-57016446D01*
X96094003Y-57089433D01*
X95883566Y-57196657D01*
X95805559Y-57253333D01*
X95692490Y-57335483D01*
X95692488Y-57335485D01*
X95692487Y-57335485D01*
X95525485Y-57502487D01*
X95525485Y-57502488D01*
X95525483Y-57502490D01*
X95488906Y-57552834D01*
X95386657Y-57693566D01*
X95279433Y-57904003D01*
X95206446Y-58128631D01*
X95169500Y-58361902D01*
X95169500Y-58598097D01*
X95206446Y-58831368D01*
X95279433Y-59055996D01*
X95367709Y-59229245D01*
X95386657Y-59266433D01*
X95525483Y-59457510D01*
X95525485Y-59457512D01*
X95625792Y-59557819D01*
X95659277Y-59619142D01*
X95654293Y-59688834D01*
X95612421Y-59744767D01*
X95546957Y-59769184D01*
X95538111Y-59769500D01*
X95091578Y-59769500D01*
X94897176Y-59800290D01*
X94897175Y-59800290D01*
X94844502Y-59817404D01*
X94844503Y-59817405D01*
X94709970Y-59861117D01*
X94534594Y-59950476D01*
X94493271Y-59980500D01*
X94375354Y-60066172D01*
X94375352Y-60066174D01*
X94375351Y-60066174D01*
X93026174Y-61415351D01*
X93026174Y-61415352D01*
X93026172Y-61415354D01*
X92976485Y-61483741D01*
X92910476Y-61574594D01*
X92821113Y-61749978D01*
X92787820Y-61852448D01*
X92787820Y-61852450D01*
X92760290Y-61937173D01*
X92729500Y-62131577D01*
X90150500Y-62131577D01*
X90150500Y-54994500D01*
X90170185Y-54927461D01*
X90222989Y-54881706D01*
X90274500Y-54870500D01*
X192489664Y-54870500D01*
X192556703Y-54890185D01*
G37*
%TD.AperFunction*%
%TA.AperFunction,Conductor*%
G36*
X185612834Y-120958154D02*
G01*
X185668767Y-121000026D01*
X185693184Y-121065490D01*
X185693500Y-121074336D01*
X185693500Y-124486664D01*
X185673815Y-124553703D01*
X185657181Y-124574345D01*
X166018345Y-144213181D01*
X165957022Y-144246666D01*
X165930664Y-144249500D01*
X164741928Y-144249500D01*
X164674889Y-144229815D01*
X164669043Y-144225818D01*
X164656436Y-144216659D01*
X164656435Y-144216658D01*
X164656433Y-144216657D01*
X164590715Y-144183172D01*
X164445996Y-144109433D01*
X164221368Y-144036446D01*
X163988097Y-143999500D01*
X163988092Y-143999500D01*
X163751908Y-143999500D01*
X163751903Y-143999500D01*
X163518631Y-144036446D01*
X163294003Y-144109433D01*
X163083566Y-144216657D01*
X162974550Y-144295862D01*
X162892490Y-144355483D01*
X162892488Y-144355485D01*
X162892487Y-144355485D01*
X162792181Y-144455792D01*
X162730858Y-144489277D01*
X162661166Y-144484293D01*
X162605233Y-144442421D01*
X162580816Y-144376957D01*
X162580500Y-144368111D01*
X162580500Y-143939336D01*
X162600185Y-143872297D01*
X162616819Y-143851655D01*
X185481819Y-120986655D01*
X185543142Y-120953170D01*
X185612834Y-120958154D01*
G37*
%TD.AperFunction*%
%TA.AperFunction,Conductor*%
G36*
X192725463Y-99721523D02*
G01*
X192781396Y-99763395D01*
X192805813Y-99828859D01*
X192805748Y-99847417D01*
X192805500Y-99850573D01*
X192805500Y-111222920D01*
X192785815Y-111289959D01*
X192733011Y-111335714D01*
X192663853Y-111345658D01*
X192607189Y-111322187D01*
X192492330Y-111236203D01*
X192492328Y-111236202D01*
X192357482Y-111185908D01*
X192357483Y-111185908D01*
X192297883Y-111179501D01*
X192297881Y-111179500D01*
X192297873Y-111179500D01*
X192297864Y-111179500D01*
X189702129Y-111179500D01*
X189702123Y-111179501D01*
X189642516Y-111185908D01*
X189507671Y-111236202D01*
X189507664Y-111236206D01*
X189392455Y-111322452D01*
X189392452Y-111322455D01*
X189306206Y-111437664D01*
X189306202Y-111437671D01*
X189255908Y-111572517D01*
X189249501Y-111632116D01*
X189249500Y-111632135D01*
X189249500Y-114727870D01*
X189249501Y-114727876D01*
X189255908Y-114787483D01*
X189306202Y-114922328D01*
X189306206Y-114922335D01*
X189392452Y-115037544D01*
X189392455Y-115037547D01*
X189507664Y-115123793D01*
X189507671Y-115123797D01*
X189642517Y-115174091D01*
X189642516Y-115174091D01*
X189649444Y-115174835D01*
X189702127Y-115180500D01*
X192297872Y-115180499D01*
X192357483Y-115174091D01*
X192492331Y-115123796D01*
X192607190Y-115037812D01*
X192672652Y-115013395D01*
X192740926Y-115028246D01*
X192790331Y-115077651D01*
X192805500Y-115137079D01*
X192805500Y-120842663D01*
X192785815Y-120909702D01*
X192769181Y-120930344D01*
X188398374Y-125301151D01*
X188337051Y-125334636D01*
X188267359Y-125329652D01*
X188211426Y-125287780D01*
X188187009Y-125222316D01*
X188188220Y-125194072D01*
X188194500Y-125154422D01*
X188194500Y-104201335D01*
X188214185Y-104134296D01*
X188230814Y-104113659D01*
X192594450Y-99750022D01*
X192655771Y-99716539D01*
X192725463Y-99721523D01*
G37*
%TD.AperFunction*%
%TA.AperFunction,Conductor*%
G36*
X187051203Y-68935685D02*
G01*
X187071845Y-68952319D01*
X199713181Y-81593655D01*
X199746666Y-81654978D01*
X199749500Y-81681336D01*
X199749500Y-85168561D01*
X199738520Y-85219576D01*
X199732921Y-85231978D01*
X199706204Y-85267669D01*
X199655909Y-85402517D01*
X199655898Y-85402618D01*
X199654027Y-85406764D01*
X199633859Y-85430246D01*
X199615317Y-85455016D01*
X199611300Y-85456514D01*
X199608505Y-85459769D01*
X199578842Y-85468620D01*
X199549853Y-85479433D01*
X199545662Y-85478521D01*
X199541552Y-85479748D01*
X199511818Y-85471158D01*
X199481580Y-85464581D01*
X199476888Y-85461069D01*
X199474427Y-85460358D01*
X199471563Y-85457082D01*
X199453326Y-85443430D01*
X199339786Y-85329890D01*
X199167820Y-85204951D01*
X198978414Y-85108444D01*
X198978413Y-85108443D01*
X198978412Y-85108443D01*
X198776243Y-85042754D01*
X198776241Y-85042753D01*
X198776240Y-85042753D01*
X198614957Y-85017208D01*
X198566287Y-85009500D01*
X198353713Y-85009500D01*
X198305042Y-85017208D01*
X198143760Y-85042753D01*
X197941585Y-85108444D01*
X197752179Y-85204951D01*
X197580213Y-85329890D01*
X197429890Y-85480213D01*
X197304951Y-85652179D01*
X197208444Y-85841585D01*
X197142753Y-86043760D01*
X197129732Y-86125974D01*
X197109500Y-86253713D01*
X197109500Y-86466287D01*
X197142754Y-86676243D01*
X197203431Y-86862988D01*
X197209500Y-86901303D01*
X197209500Y-91546664D01*
X197189815Y-91613703D01*
X197173181Y-91634345D01*
X192952016Y-95855509D01*
X192890693Y-95888994D01*
X192821001Y-95884010D01*
X192765068Y-95842138D01*
X192740651Y-95776674D01*
X192743659Y-95739309D01*
X192744087Y-95737493D01*
X192744091Y-95737483D01*
X192750500Y-95677873D01*
X192750499Y-92582128D01*
X192744091Y-92522517D01*
X192693796Y-92387669D01*
X192693795Y-92387668D01*
X192693793Y-92387664D01*
X192607547Y-92272455D01*
X192607544Y-92272452D01*
X192492335Y-92186206D01*
X192492328Y-92186202D01*
X192357482Y-92135908D01*
X192357483Y-92135908D01*
X192297883Y-92129501D01*
X192297881Y-92129500D01*
X192297873Y-92129500D01*
X192297864Y-92129500D01*
X189702129Y-92129500D01*
X189702123Y-92129501D01*
X189642516Y-92135908D01*
X189507671Y-92186202D01*
X189507664Y-92186206D01*
X189392455Y-92272452D01*
X189392452Y-92272455D01*
X189306206Y-92387664D01*
X189306202Y-92387671D01*
X189255908Y-92522517D01*
X189249501Y-92582116D01*
X189249501Y-92582123D01*
X189249500Y-92582135D01*
X189249500Y-95677870D01*
X189249501Y-95677876D01*
X189255908Y-95737483D01*
X189306202Y-95872328D01*
X189306206Y-95872335D01*
X189392452Y-95987544D01*
X189392455Y-95987547D01*
X189507664Y-96073793D01*
X189507671Y-96073797D01*
X189642517Y-96124091D01*
X189642516Y-96124091D01*
X189649444Y-96124835D01*
X189702127Y-96130500D01*
X192297872Y-96130499D01*
X192357483Y-96124091D01*
X192359303Y-96123661D01*
X192360759Y-96123738D01*
X192365196Y-96123262D01*
X192365273Y-96123980D01*
X192429073Y-96127395D01*
X192485748Y-96168258D01*
X192511334Y-96233274D01*
X192497708Y-96301802D01*
X192475509Y-96332016D01*
X186112181Y-102695345D01*
X186050858Y-102728830D01*
X185981166Y-102723846D01*
X185925233Y-102681974D01*
X185900816Y-102616510D01*
X185900500Y-102607664D01*
X185900500Y-91166976D01*
X185920185Y-91099937D01*
X185972989Y-91054182D01*
X186000135Y-91046736D01*
X185999932Y-91045876D01*
X186007479Y-91044092D01*
X186007481Y-91044091D01*
X186007483Y-91044091D01*
X186142331Y-90993796D01*
X186257546Y-90907546D01*
X186343796Y-90792331D01*
X186394091Y-90657483D01*
X186400500Y-90597873D01*
X186400499Y-87502128D01*
X186394091Y-87442517D01*
X186343796Y-87307669D01*
X186343795Y-87307668D01*
X186343793Y-87307664D01*
X186257547Y-87192455D01*
X186257544Y-87192452D01*
X186142335Y-87106206D01*
X186142328Y-87106202D01*
X186007482Y-87055908D01*
X185999938Y-87054126D01*
X186000474Y-87051853D01*
X185946688Y-87029571D01*
X185906843Y-86972177D01*
X185900500Y-86933024D01*
X185900500Y-86507577D01*
X185884170Y-86404479D01*
X185869709Y-86313174D01*
X185828178Y-86185354D01*
X185808884Y-86125974D01*
X185808882Y-86125971D01*
X185808882Y-86125969D01*
X185766992Y-86043757D01*
X185719524Y-85950595D01*
X185640324Y-85841585D01*
X185603834Y-85791360D01*
X185603830Y-85791355D01*
X180225319Y-80412844D01*
X180191834Y-80351521D01*
X180189000Y-80325163D01*
X180189000Y-75115999D01*
X180208685Y-75048960D01*
X180261489Y-75003205D01*
X180313000Y-74991999D01*
X180486371Y-74991999D01*
X180486372Y-74991999D01*
X180545983Y-74985591D01*
X180680831Y-74935296D01*
X180796046Y-74849046D01*
X180882296Y-74733831D01*
X180932591Y-74598983D01*
X180939000Y-74539373D01*
X180938999Y-70443628D01*
X180932591Y-70384017D01*
X180882296Y-70249169D01*
X180810160Y-70152809D01*
X180785744Y-70087348D01*
X180800595Y-70019075D01*
X180810155Y-70004198D01*
X180882296Y-69907831D01*
X180932591Y-69772983D01*
X180939000Y-69713373D01*
X180939000Y-69040000D01*
X180958685Y-68972961D01*
X181011489Y-68927206D01*
X181063000Y-68916000D01*
X186984164Y-68916000D01*
X187051203Y-68935685D01*
G37*
%TD.AperFunction*%
%TD*%
M02*
