%TF.GenerationSoftware,KiCad,Pcbnew,9.0.6*%
%TF.CreationDate,2026-03-05T12:47:34+03:00*%
%TF.ProjectId,QMX+ Battery + Audio Board,514d582b-2042-4617-9474-657279202b20,rev?*%
%TF.SameCoordinates,Original*%
%TF.FileFunction,Soldermask,Top*%
%TF.FilePolarity,Negative*%
%FSLAX46Y46*%
G04 Gerber Fmt 4.6, Leading zero omitted, Abs format (unit mm)*
G04 Created by KiCad (PCBNEW 9.0.6) date 2026-03-05 12:47:34*
%MOMM*%
%LPD*%
G01*
G04 APERTURE LIST*
G04 Aperture macros list*
%AMRoundRect*
0 Rectangle with rounded corners*
0 $1 Rounding radius*
0 $2 $3 $4 $5 $6 $7 $8 $9 X,Y pos of 4 corners*
0 Add a 4 corners polygon primitive as box body*
4,1,4,$2,$3,$4,$5,$6,$7,$8,$9,$2,$3,0*
0 Add four circle primitives for the rounded corners*
1,1,$1+$1,$2,$3*
1,1,$1+$1,$4,$5*
1,1,$1+$1,$6,$7*
1,1,$1+$1,$8,$9*
0 Add four rect primitives between the rounded corners*
20,1,$1+$1,$2,$3,$4,$5,0*
20,1,$1+$1,$4,$5,$6,$7,0*
20,1,$1+$1,$6,$7,$8,$9,0*
20,1,$1+$1,$8,$9,$2,$3,0*%
%AMFreePoly0*
4,1,25,0.427955,0.971196,0.440078,0.960842,0.960842,0.440078,0.989349,0.384130,0.990600,0.368236,0.990600,-0.368236,0.971196,-0.427955,0.960842,-0.440078,0.440078,-0.960842,0.384130,-0.989349,0.368236,-0.990600,-0.368236,-0.990600,-0.427955,-0.971196,-0.440078,-0.960842,-0.960842,-0.440078,-0.989349,-0.384130,-0.990600,-0.368236,-0.990600,0.368236,-0.971196,0.427955,-0.960842,0.440078,
-0.440078,0.960842,-0.384130,0.989349,-0.368236,0.990600,0.368236,0.990600,0.427955,0.971196,0.427955,0.971196,$1*%
G04 Aperture macros list end*
%ADD10RoundRect,0.250000X-0.450000X0.350000X-0.450000X-0.350000X0.450000X-0.350000X0.450000X0.350000X0*%
%ADD11RoundRect,0.050800X-1.000000X1.500000X-1.000000X-1.500000X1.000000X-1.500000X1.000000X1.500000X0*%
%ADD12RoundRect,0.050800X-1.500000X2.000000X-1.500000X-2.000000X1.500000X-2.000000X1.500000X2.000000X0*%
%ADD13R,3.500000X3.500000*%
%ADD14C,3.500000*%
%ADD15C,2.250000*%
%ADD16C,1.600000*%
%ADD17O,2.101600X2.101600*%
%ADD18RoundRect,0.250000X0.475000X-0.337500X0.475000X0.337500X-0.475000X0.337500X-0.475000X-0.337500X0*%
%ADD19O,2.743200X2.203200*%
%ADD20R,1.700000X1.700000*%
%ADD21O,1.700000X1.700000*%
%ADD22O,1.600000X1.600000*%
%ADD23RoundRect,0.050800X1.260000X-0.775700X1.260000X0.775700X-1.260000X0.775700X-1.260000X-0.775700X0*%
%ADD24RoundRect,0.050800X1.250000X-1.500000X1.250000X1.500000X-1.250000X1.500000X-1.250000X-1.500000X0*%
%ADD25RoundRect,0.101600X1.250000X-1.500000X1.250000X1.500000X-1.250000X1.500000X-1.250000X-1.500000X0*%
%ADD26O,2.203200X2.203200*%
%ADD27C,4.013200*%
%ADD28FreePoly0,0.000000*%
%ADD29FreePoly0,270.000000*%
G04 APERTURE END LIST*
D10*
%TO.C,R3*%
X100330000Y-78316000D03*
X100330000Y-80316000D03*
%TD*%
D11*
%TO.C,U1*%
X212668500Y-77317500D03*
X212668500Y-62839500D03*
D12*
X178938500Y-67665500D03*
X178938500Y-72491500D03*
%TD*%
D13*
%TO.C,BT3*%
X116840000Y-66000000D03*
D14*
X116840000Y-138000000D03*
%TD*%
D15*
%TO.C,F1*%
X210000000Y-86360000D03*
X210000000Y-93980000D03*
X210000000Y-109220000D03*
%TD*%
D16*
%TO.C,C1*%
X188976000Y-59162000D03*
X188976000Y-56662000D03*
%TD*%
D17*
%TO.C,U2*%
X102284000Y-90028200D03*
X99744000Y-90006100D03*
X94655000Y-90028200D03*
X97204000Y-90006100D03*
%TD*%
D18*
%TO.C,C2*%
X192532000Y-58971000D03*
X192532000Y-56896000D03*
%TD*%
D19*
%TO.C,J1*%
X96940000Y-68640000D03*
X96940000Y-66100000D03*
X96940000Y-63560000D03*
X96940000Y-61020000D03*
X96940000Y-58480000D03*
%TD*%
D20*
%TO.C,J4*%
X201000000Y-86360000D03*
D21*
X198460000Y-86360000D03*
%TD*%
D16*
%TO.C,R2*%
X96520000Y-74236000D03*
D22*
X96520000Y-84396000D03*
%TD*%
D16*
%TO.C,R1*%
X100330000Y-74236000D03*
D22*
X100330000Y-84396000D03*
%TD*%
D23*
%TO.C,BMS1*%
X191010000Y-133740300D03*
D24*
X191000000Y-132230000D03*
D25*
X191000000Y-113180000D03*
X191000000Y-94130000D03*
X173220000Y-94130000D03*
X179570000Y-89050000D03*
X184650000Y-89050000D03*
%TD*%
D10*
%TO.C,R4*%
X96520000Y-78316000D03*
X96520000Y-80316000D03*
%TD*%
D26*
%TO.C,U3*%
X156250000Y-145500000D03*
X158790000Y-145500000D03*
X161330000Y-145500000D03*
X163870000Y-145500000D03*
%TD*%
D27*
%TO.C,H1*%
X98840000Y-138172500D03*
%TD*%
%TO.C,H2*%
X201948750Y-99437500D03*
%TD*%
D13*
%TO.C,BT2*%
X138430000Y-138000000D03*
D14*
X138430000Y-66000000D03*
%TD*%
D13*
%TO.C,BT1*%
X160000000Y-66000000D03*
D14*
X160000000Y-138000000D03*
%TD*%
D28*
%TO.C,J2*%
X121700000Y-148010000D03*
X121700000Y-145470000D03*
X124240000Y-148010000D03*
X124240000Y-145470000D03*
X126780000Y-148010000D03*
X126780000Y-145470000D03*
%TD*%
D29*
%TO.C,J3*%
X196312500Y-55940000D03*
X198852500Y-55940000D03*
X196312500Y-58480000D03*
X198852500Y-58480000D03*
%TD*%
M02*
