M48
; DRILL file {KiCad 9.0.6} date 2026-03-05T12:47:31+0300
; FORMAT={-:-/ absolute / inch / decimal}
; #@! TF.CreationDate,2026-03-05T12:47:31+03:00
; #@! TF.GenerationSoftware,Kicad,Pcbnew,9.0.6
; #@! TF.FileFunction,Plated,1,2,PTH
FMAT,2
INCH
; #@! TA.AperFunction,Plated,PTH,ComponentDrill
T1C0.0315
; #@! TA.AperFunction,Plated,PTH,ViaDrill
T2C0.0394
; #@! TA.AperFunction,Plated,PTH,ComponentDrill
T3C0.0394
; #@! TA.AperFunction,Plated,PTH,ComponentDrill
T4C0.0400
; #@! TA.AperFunction,Plated,PTH,ComponentDrill
T5C0.0402
; #@! TA.AperFunction,Plated,PTH,ComponentDrill
T6C0.0433
; #@! TA.AperFunction,Plated,PTH,ComponentDrill
T7C0.0492
; #@! TA.AperFunction,Plated,PTH,ComponentDrill
T8C0.0787
; #@! TA.AperFunction,Plated,PTH,ComponentDrill
T9C0.1299
%
G90
G05
T1
X3.8Y-2.9227
X3.8Y-3.3227
X3.95Y-2.9227
X3.95Y-3.3227
X7.44Y-2.2308
X7.44Y-2.3292
T2
X3.6811Y-3.8386
X3.8386Y-2.815
X4.1142Y-5.4331
X4.3012Y-2.687
X5.6693Y-3.9961
X6.811Y-3.1496
X6.9094Y-5.2264
X7.0472Y-4.4488
X7.06Y-2.48
X7.126Y-4.4488
X7.44Y-3.52
X7.48Y-4.2
X7.48Y-4.76
X7.9035Y-4.3504
T3
X3.7266Y-3.5444
X3.8269Y-3.5435
X3.9269Y-3.5435
X4.0269Y-3.5444
X7.8134Y-3.4
X7.9134Y-3.4
T4
X3.8165Y-2.3024
X3.8165Y-2.4024
X3.8165Y-2.5024
X3.8165Y-2.6024
X3.8165Y-2.7024
X4.7913Y-5.7272
X4.7913Y-5.8272
X4.8913Y-5.7272
X4.8913Y-5.8272
X4.9913Y-5.7272
X4.9913Y-5.8272
X7.7288Y-2.2024
X7.7288Y-2.3024
X7.8288Y-2.2024
X7.8288Y-2.3024
T5
X6.8197Y-3.7059
X7.0697Y-3.5059
X7.2697Y-3.5059
X7.5197Y-3.7059
X7.5197Y-4.4559
X7.5197Y-5.2059
X7.5197Y-5.2559
T6
X6.1516Y-5.7283
X6.2516Y-5.7283
X6.3516Y-5.7283
X6.4516Y-5.7283
T7
X8.2677Y-3.4
X8.2677Y-3.7
X8.2677Y-4.3
T8
X4.6Y-2.5984
X4.6Y-5.4331
X5.45Y-2.5984
X5.45Y-5.4331
X6.2992Y-2.5984
X6.2992Y-5.4331
T9
X3.8913Y-5.4399
X7.9507Y-3.9149
T3
G00X7.0448Y-2.663
M15
G01X7.0448Y-2.665
M16
G05
G00X7.0448Y-2.853
M15
G01X7.0448Y-2.855
M16
G05
G00X8.3728Y-2.473
M15
G01X8.3728Y-2.475
M16
G05
G00X8.3728Y-3.043
M15
G01X8.3728Y-3.045
M16
G05
M30
